<svg xmlns="http://www.w3.org/2000/svg" width="25.715" height="35.297" viewBox="0 0 25.715 35.297">
  <path id="Path_44511" data-name="Path 44511" d="M74.655,27.32c-.116,3.348.273,6.6.016,9.8a2.1,2.1,0,0,1-1.784.115,3.159,3.159,0,0,1-.58-1.611C71,30.908,67.9,28.9,62.73,29.741a3.513,3.513,0,0,0-3.142,2.79,3.708,3.708,0,0,0,1.551,3.915,57.36,57.36,0,0,0,7.019,4.111A34.9,34.9,0,0,1,74.342,44.9c2.572,2.338,4.352,5.147,3.429,8.811a10.355,10.355,0,0,1-7.113,7.746,17.651,17.651,0,0,1-10.183.317,12.849,12.849,0,0,0-7.354-.116,2.847,2.847,0,0,1-.7.007V49.1c1.294-.544,1.819-.343,2.29.875,1.148,2.968,2.331,5.911,4.968,7.958a8.022,8.022,0,0,0,7.208,1.682,4.283,4.283,0,0,0,2.026-7.427,26.606,26.606,0,0,0-5.19-3.56c-2.77-1.7-5.573-3.323-8.212-5.245-4.08-2.972-4.209-9.374-.757-12.738a12.41,12.41,0,0,1,11.533-3.3c2.591.471,5.128.9,7.686-.06A2.472,2.472,0,0,1,74.655,27.32Z" transform="translate(-52.303 -27.082)" fill="#ffa700"/>
</svg>
