<svg width="61" height="53" fill="none" xmlns="http://www.w3.org/2000/svg"><path d="M16.98.507a1.374 1.374 0 00-1.154.983l-3.614 12.7H1.972a1.37 1.37 0 00-1.24 1.371v8.892c-.005.366.136.72.393.981a1.379 1.379 0 001.951 0c.257-.262.398-.615.393-.98V16.93h41.048V44.1l-8.553-9.619v-.002a1.365 1.365 0 00-1.24-.45 1.385 1.385 0 00-.406.129L20.7 40.977l-5.281-5.815a1.364 1.364 0 00-1.24-.45 1.415 1.415 0 00-.385.13L3.467 40.015v-10.09h.003a1.369 1.369 0 10-2.737 0v21.208-.002c0 .756.612 1.368 1.368 1.368h43.785c.757 0 1.369-.612 1.369-1.368v-2.096l2.352.663a1.373 1.373 0 001.71-.94l9.58-34.89-.003.002a1.37 1.37 0 00-.962-1.69L17.515.554A1.339 1.339 0 0016.98.51V.507zm1.134 3.036l39.765 10.902-8.853 32.24-1.775-.493V15.557h.003a1.37 1.37 0 00-1.368-1.368h-30.83l3.058-10.646zM22.625 22.4c-3.007 0-5.474 2.467-5.474 5.473 0 3.007 2.467 5.474 5.474 5.474S28.1 30.88 28.1 27.873c0-3.006-2.467-5.473-5.474-5.473zm0 2.737a2.715 2.715 0 012.737 2.736 2.717 2.717 0 01-2.737 2.737 2.715 2.715 0 01-2.737-2.737 2.717 2.717 0 012.737-2.736zm11.993 11.95l9.9 11.115v1.561H28.719l-6.094-6.692 11.993-5.987v.002zm-20.524.684l10.902 11.992H3.467v-6.671l10.624-5.324.003.003z" fill="#fff"/></svg>