<svg xmlns="http://www.w3.org/2000/svg" width="42.825" height="39.234" viewBox="0 0 42.825 39.234">
  <g id="ico-home" transform="translate(-577.799 -796.618)">
    <path id="Path_44578" data-name="Path 44578" d="M13.917,1.878c7.686,0,13.917-5.456,13.917,2.231,0,1.682-2.377,8.914-4.43,12.378-2.007,3.39-7.166,7.059-8.736,7.059-2.746,0-7.164-3.269-9.361-4.807-2.569-1.654-2.5-4.712-3.5-8.168C1.537,9.636,0,5.454,0,4.109,0-3.578,6.231,1.878,13.917,1.878Z" transform="matrix(0.819, -0.574, 0.574, 0.819, 582.347, 814.18)" fill="#f8d57f" opacity="0.65"/>
    <g id="house" transform="translate(577.799 796.618)">
      <g id="Group_13063" data-name="Group 13063" transform="translate(0 0)">
        <path id="Path_44559" data-name="Path 44559" d="M42.369,46.258a2.647,2.647,0,0,0-3.656-.707l-5.465,3.657-.016-11.384,1.9,1.779a2.162,2.162,0,0,0,1.483.586h0A2.178,2.178,0,0,0,38.2,39.5a2.17,2.17,0,0,0-.1-3.067l-3.6-3.372a.611.611,0,1,0-.836.892l3.6,3.372a.947.947,0,0,1-.647,1.638h0a.943.943,0,0,1-.647-.256h0L21.674,25.321a.611.611,0,0,0-.837,0L6.581,38.752a.947.947,0,0,1-1.3-1.379L20.6,22.94a.949.949,0,0,1,1.3,0l8.964,8.4a.611.611,0,0,0,.836-.892l-8.964-8.4a2.173,2.173,0,0,0-2.971,0l-4.9,4.62v-.824a.973.973,0,0,0-.972-.971h0l-3.509,0a.972.972,0,0,0-.971.974l.01,5.946L4.444,36.483a2.17,2.17,0,0,0,1.423,3.748h.066a2.154,2.154,0,0,0,1.486-.591l1.894-1.785.008,5.377A12.881,12.881,0,0,0,7.465,43.1H6.419v-.367A2.234,2.234,0,0,0,4.188,40.5H2.232A2.234,2.234,0,0,0,0,42.732v9.579a.611.611,0,1,0,1.223,0V42.732a1.01,1.01,0,0,1,1.009-1.009H4.188A1.01,1.01,0,0,1,5.2,42.732V57.207a1.01,1.01,0,0,1-1.009,1.009H2.232a1.01,1.01,0,0,1-1.009-1.009v-1.07a.611.611,0,1,0-1.223,0v1.07a2.234,2.234,0,0,0,2.232,2.232H4.188a2.234,2.234,0,0,0,2.232-2.232v-.083l8.952,3.39.05.017a4.269,4.269,0,0,0,1.162.165,3.958,3.958,0,0,0,.618-.048l13.155-1.9h.009a6.44,6.44,0,0,0,3.051-1.367l.022-.019,8.5-7.644A2.647,2.647,0,0,0,42.369,46.258ZM13.637,26.1l0,1.722-3,2.83L10.628,26.1Zm7.62.508L32.008,36.678l.019,13.349L30.3,51.185l-1.833-.1-.048-.487a3.871,3.871,0,0,0-3.11-3.423l-.011-7.941a1.108,1.108,0,0,0-1.106-1.1h0l-5.826.008a1.106,1.106,0,0,0-1.1,1.108l.01,6.924a11.617,11.617,0,0,1-3.286-1.3q-.193-.113-.389-.218c-.051-.028-.1-.053-.154-.08-.08-.042-.159-.083-.24-.123-.064-.032-.129-.062-.193-.093s-.137-.065-.206-.1-.141-.062-.212-.093l-.194-.083-.219-.088-.2-.075-.218-.079-.206-.071-.21-.068-.226-.069-.195-.056c-.085-.024-.171-.046-.256-.068l-.12-.032-.009-6.765Zm2.826,20.413-5.113-.589-.482-.055-.01-7.018,5.593-.008Zm17.042,1.788-8.491,7.636a5.216,5.216,0,0,1-2.456,1.1l-13.15,1.9h-.017a2.915,2.915,0,0,1-1.233-.079L6.419,55.817v-11.5H7.465a11.672,11.672,0,0,1,2.636.3l.1.023c.106.026.211.052.316.08l.028.008q.158.043.315.091l.056.017q.167.052.332.108l.034.012q.344.119.681.259l.037.015q.168.071.333.146l.009,0q.16.074.318.152l.037.018q.154.077.306.159l.057.031c.1.056.2.113.3.172a12.841,12.841,0,0,0,4.707,1.638l.016,0,6.849.788.113.019a2.651,2.651,0,0,1,2.07,1.9,2.686,2.686,0,0,1,.082.445l.027.274L14.39,49.865a.611.611,0,0,0-.107,1.218l13.57,1.189h.019l2.559.144h.034l.036,0,.041,0c.018,0,.036-.006.054-.01l.038-.009a.593.593,0,0,0,.057-.021l.031-.012a.6.6,0,0,0,.083-.046l2.172-1.454h0l6.415-4.294a1.419,1.419,0,0,1,1.73,2.241Z" transform="translate(0 -21.461)"/>
      </g>
    </g>
  </g>
</svg>
