<?xml version="1.0" encoding="utf-8"?>
<!-- Generator: Adobe Illustrator 26.0.2, SVG Export Plug-In . SVG Version: 6.00 Build 0)  -->
<svg version="1.1" id="Layer_1" xmlns="http://www.w3.org/2000/svg" xmlns:xlink="http://www.w3.org/1999/xlink" x="0px" y="0px"
	 viewBox="0 0 318.36 45.56" style="enable-background:new 0 0 318.36 45.56;" xml:space="preserve">
<style type="text/css">
	.st0{fill:#FFFFFF;}
</style>
<path class="st0" d="M318.36,42.1c-1.92,0.13-3.36-1.08-4.96-1.68c-4.16-1.55-8.57-1.77-12.75-3.15c-1.87-0.62-4.15,0.41-5.92-0.71
	c-3.49-2.22-7.76-0.88-11.21-3.06c-4.56,1-8.6-2.73-13.16-1.67c-4-2.29-8.58-0.65-12.73-2.17c-1.75-0.64-3.73-0.75-5.54,0.24
	c-0.3,0.19-0.52,0.49-0.62,0.83c-0.15,0.61,0.29,0.93,0.76,1.07c0.57,0.16,1.18,0.37,1.74,0.29c2.35-0.32,4.43,0.15,6.27,1.85
	c0.74,0.69,1.76,0.7,2.73,0.52c2.03-0.38,3.99,0.46,6.02,0.31c0.95-0.07,0.72,0.6,0.96,1.31c0.46,1.35,2.22,1.05,2.69-0.4
	c0.2-0.6,0.23-1.25,0.79-1.61c0.2-0.13,0.44-0.19,0.67-0.16c0.46,0.08,0.49,0.39,0.31,0.82c-0.93,2.22,0.86,2.49,1.95,2.49
	c3.38-0.03,6.02,1.86,8.84,3.37c0.1,0.05,0.17,0.19,0.29,0.23c1.09,0.38,2.32-2.18,3.34,0.21c0.66,1.55,2.1,1.43,3.37,1.65
	c1.4,0.25,2.8,0.51,4.2,0.79c1.46,0.29,3.02,0.3,4.7,2.1c-7.91-1.05-15.19-0.83-22.48-1.68c-6.82-0.8-13.69-1.27-20.41-2.7
	c-8.48-1.81-17.09-2.64-25.6-4.23c-13.87-2.59-27.79-4.96-41.75-6.88c-17.49-2.41-35.05-4.27-52.58-6.41
	c-2.47-0.29-4.9-0.9-7.35-1.32c-7.27-1.26-14.63-1.35-21.95-1.63c-8.05-0.31-16.03-1.52-24.08-1.75
	c-14.11-0.39-28.17,0.66-42.2,1.97c-5.47,0.51-10.88,0.07-16.3-0.25c-3.2-0.19-6.42-0.61-9.57-0.13c-4.7,0.72-9.41-0.54-14.11,0.42
	c-2.11,0.43-3.22-1.5-2.45-3.75c0.7-2.06,2.18-3.31,3.99-4.08c4.38-1.88,8.91-3.38,13.55-4.47c17.75-4.15,35.79-5.81,53.87-7.21
	c15.6-1.21,31.21-1.81,46.85-1.27c16.33,0.56,32.63,1.7,48.9,3.41c8.62,0.9,17.12,2.52,25.7,3.66c13.64,1.82,27.17,4.37,40.65,7.14
	c11.75,2.41,23.41,5.26,35.1,7.98c5.67,1.32,11.37,2.58,16.94,4.25c8.42,2.53,16.76,5.45,24.7,9.43
	C313.45,37.59,316.12,39.63,318.36,42.1z M242.21,28.44c1.79,1.59,3.32,2.12,5.16,1.29C245.89,28.91,244.52,27.72,242.21,28.44
	L242.21,28.44z M234.42,27.04c0.17,0.12,0.34,0.32,0.53,0.35c0.29,0.04,0.71,0.13,0.61-0.42c-0.02-0.11-0.38-0.24-0.57-0.22
	C234.8,26.76,234.61,26.93,234.42,27.04L234.42,27.04z M229.46,25.52c-0.27-0.06-0.42,0.05-0.42,0.33c0,0.1,0.1,0.29,0.15,0.29
	c0.19-0.02,0.39-0.05,0.57-0.1C229.65,25.86,229.55,25.69,229.46,25.52L229.46,25.52z"/>
</svg>
