<svg xmlns="http://www.w3.org/2000/svg" width="73.29" height="76.094" viewBox="0 0 73.29 76.094">
  <g id="address" transform="translate(1.664 -4.262)">
    <g id="Group_13559" data-name="Group 13559" transform="translate(-1.664 4.262)">
      <path id="Path_44552" data-name="Path 44552" d="M35.086-1.361c20.238.113,36.733,17.239,36.842,38.251S55.719,74.845,35.481,74.732-1.252,57.493-1.361,36.481,14.848-1.474,35.086-1.361Z" transform="translate(1.361 1.361)" fill="#ffa700"/>
      <path id="Path_44547" data-name="Path 44547" d="M300.466,289.443c-7.244,0-13.1,5.2-13.1,11.628,0,6.293,5.857,14.774,10.942,20.793a2.8,2.8,0,0,0,4.16,0c5.087-6.02,10.944-14.5,10.944-20.793C313.412,294.641,307.555,289.443,300.466,289.443Zm-.077,18.7c-4.275,0-7.74-3.076-7.74-6.869s3.465-6.87,7.74-6.87,7.74,3.076,7.74,6.87S304.663,308.145,300.388,308.145Z" transform="translate(-263.989 -268.123)" fill="#fff"/>
    </g>
    <path id="Path_44548" data-name="Path 44548" d="M310.739,283.889c-18.154,0-32.869,15.143-32.869,33.825a34.208,34.208,0,0,0,9.249,23.49l43.046-52.095C329.314,280.412,319.613,283.889,310.739,283.889Z" transform="translate(-279.534 -278.941)" fill="#ffa700" opacity="0.2" style="mix-blend-mode: multiply;isolation: isolate"/>
  </g>
</svg>
