<svg id="email" xmlns="http://www.w3.org/2000/svg" width="55.383" height="49.158" viewBox="0 0 55.383 49.158">
  <path id="Path_44554" data-name="Path 44554" d="M27.691,0C42.985,0,55.383,11,55.383,24.579s-12.4,24.579-27.691,24.579S0,38.153,0,24.579,12.4,0,27.691,0Z" transform="translate(0)" fill="#ffa700"/>
  <path id="Path_44543" data-name="Path 44543" d="M306.417,215.447a8.1,8.1,0,0,1-10.491.215,6.24,6.24,0,0,1-2.3-4.79c0-3.634,3.335-6.594,7.429-6.594s7.428,2.961,7.428,6.594v1.964a2.23,2.23,0,0,0,4.428,0v-1.964c0-5.814-5.336-10.55-11.886-10.55s-11.886,4.736-11.886,10.55,5.338,10.549,11.886,10.549a13.148,13.148,0,0,0,4.548-.806,1.571,1.571,0,0,1,2,.591,1.245,1.245,0,0,1-.667,1.777,1.78,1.78,0,0,1-.213.081c-7.579,2.8-16.281-.4-19.405-7.133s.456-14.451,8.035-17.224,16.283.4,19.407,7.132a10.969,10.969,0,0,1,1.213,5.034v1.964a4.92,4.92,0,0,1-5.186,4.629A5.387,5.387,0,0,1,306.417,215.447Zm-5.338-.618a3.985,3.985,0,1,0-4.457-3.956A4.238,4.238,0,0,0,301.08,214.829Z" transform="translate(-273.355 -186.312)" fill="#fff"/>
  <path id="Path_44544" data-name="Path 44544" d="M305.562,189.4c-15.294,0-27.692,11-27.692,24.579a23.219,23.219,0,0,0,8.209,17.459l39.152-34.751A29.429,29.429,0,0,0,305.562,189.4Z" transform="translate(-277.87 -189.397)" fill="#ffa700" opacity="0.2" style="mix-blend-mode: multiply;isolation: isolate"/>
</svg>
