<svg id="Group_13060" data-name="Group 13060" xmlns="http://www.w3.org/2000/svg" width="55.383" height="49.158" viewBox="0 0 55.383 49.158">
  <ellipse id="Ellipse_17" data-name="Ellipse 17" cx="27.691" cy="24.579" rx="27.691" ry="24.579" transform="translate(0)" fill="#ffa700"/>
  <path id="Path_44545" data-name="Path 44545" d="M314.467,265.988c-1.942-.5-7.554-2.948-8.2-2.442s-3.362,2.659-3.362,2.659c-1.8-.361-4.922-2.612-6.56-4.245s-3.8-4.644-4-6.272l3.362-2.659c.641-.506-1.449-5.736-1.789-7.508s-3.547-1.529-4.934-1.2-7.333,9.367,3.793,20.453,21.922,6.884,22.456,5.7S316.409,266.491,314.467,265.988Z" transform="translate(-273.352 -234.735)" fill="#fff"/>
  <path id="Path_44546" data-name="Path 44546" d="M305.562,237.268c-15.294,0-27.692,11-27.692,24.578a23.14,23.14,0,0,0,7.806,17.084L324.808,244.2A29.49,29.49,0,0,0,305.562,237.268Z" transform="translate(-277.87 -237.268)" fill="#ffa700" opacity="0.2" style="mix-blend-mode: multiply;isolation: isolate"/>
</svg>
