<svg id="blackhome" xmlns="http://www.w3.org/2000/svg" width="16.625" height="17.5" viewBox="0 0 16.625 17.5">
  <g id="Home">
    <path id="Home-2" data-name="Home" d="M5.813,16.434V13.751a1.241,1.241,0,0,1,1.238-1.237H9.566a1.241,1.241,0,0,1,1.246,1.237h0v2.676A1.077,1.077,0,0,0,11.885,17.5H13.6a3.028,3.028,0,0,0,2.138-.874,2.984,2.984,0,0,0,.886-2.12V6.883a2.164,2.164,0,0,0-.783-1.665L10.013.59A2.726,2.726,0,0,0,6.55.652L.846,5.218A2.165,2.165,0,0,0,0,6.883V14.5a3.013,3.013,0,0,0,3.024,3H4.7a1.077,1.077,0,0,0,.764-.309,1.062,1.062,0,0,0,.317-.756Z" transform="translate(0 0)" fill="#200e32"/>
  </g>
</svg>
