<svg id="calendar" xmlns="http://www.w3.org/2000/svg" width="18" height="18" viewBox="0 0 18 18">
  <g id="Group_13195" data-name="Group 13195">
    <g id="Group_13194" data-name="Group 13194">
      <path id="Path_44629" data-name="Path 44629" d="M15.89,1.406h-.844V0H13.64V1.406H4.359V0H2.953V1.406H2.109A2.112,2.112,0,0,0,0,3.516V15.89A2.112,2.112,0,0,0,2.109,18H15.89A2.112,2.112,0,0,0,18,15.89V3.516A2.112,2.112,0,0,0,15.89,1.406Zm.7,14.484a.7.7,0,0,1-.7.7H2.109a.7.7,0,0,1-.7-.7V6.609H16.594Zm0-10.687H1.406V3.516a.7.7,0,0,1,.7-.7h.844V4.219H4.359V2.812H13.64V4.219h1.406V2.812h.844a.7.7,0,0,1,.7.7Z"/>
    </g>
  </g>
  <g id="Group_13197" data-name="Group 13197" transform="translate(2.746 8.388)">
    <g id="Group_13196" data-name="Group 13196" transform="translate(0 0)">
      <rect id="Rectangle_3808" data-name="Rectangle 3808" width="1" height="2" transform="translate(0.254 -0.388)"/>
    </g>
  </g>
  <g id="Group_13199" data-name="Group 13199" transform="translate(5.493 8.388)">
    <g id="Group_13198" data-name="Group 13198" transform="translate(0 0)">
      <rect id="Rectangle_3809" data-name="Rectangle 3809" width="2" height="2" transform="translate(-0.493 -0.388)"/>
    </g>
  </g>
  <g id="Group_13201" data-name="Group 13201" transform="translate(8.239 8.388)">
    <g id="Group_13200" data-name="Group 13200" transform="translate(0 0)">
      <rect id="Rectangle_3810" data-name="Rectangle 3810" width="2" height="2" transform="translate(-0.239 -0.388)"/>
    </g>
  </g>
  <g id="Group_13203" data-name="Group 13203" transform="translate(10.985 8.388)">
    <g id="Group_13202" data-name="Group 13202" transform="translate(0 0)">
      <rect id="Rectangle_3811" data-name="Rectangle 3811" width="1" height="2" transform="translate(0.015 -0.388)"/>
    </g>
  </g>
  <g id="Group_13205" data-name="Group 13205" transform="translate(13.732 8.388)">
    <g id="Group_13204" data-name="Group 13204" transform="translate(0 0)">
      <rect id="Rectangle_3812" data-name="Rectangle 3812" width="1" height="2" transform="translate(0.268 -0.388)"/>
    </g>
  </g>
  <g id="Group_13207" data-name="Group 13207" transform="translate(2.746 11.134)">
    <g id="Group_13206" data-name="Group 13206" transform="translate(0 0)">
      <rect id="Rectangle_3813" data-name="Rectangle 3813" width="1" height="2" transform="translate(0.254 -0.134)"/>
    </g>
  </g>
  <g id="Group_13209" data-name="Group 13209" transform="translate(5.493 11.134)">
    <g id="Group_13208" data-name="Group 13208" transform="translate(0 0)">
      <rect id="Rectangle_3814" data-name="Rectangle 3814" width="2" height="2" transform="translate(-0.493 -0.134)"/>
    </g>
  </g>
  <g id="Group_13211" data-name="Group 13211" transform="translate(8.239 11.134)">
    <g id="Group_13210" data-name="Group 13210" transform="translate(0 0)">
      <rect id="Rectangle_3815" data-name="Rectangle 3815" width="2" height="2" transform="translate(-0.239 -0.134)"/>
    </g>
  </g>
  <g id="Group_13213" data-name="Group 13213" transform="translate(10.985 11.134)">
    <g id="Group_13212" data-name="Group 13212" transform="translate(0 0)">
      <rect id="Rectangle_3816" data-name="Rectangle 3816" width="1" height="2" transform="translate(0.015 -0.134)"/>
    </g>
  </g>
  <g id="Group_13215" data-name="Group 13215" transform="translate(2.746 13.88)">
    <g id="Group_13214" data-name="Group 13214" transform="translate(0 0)">
      <rect id="Rectangle_3817" data-name="Rectangle 3817" width="1" height="1" transform="translate(0.254 0.119)"/>
    </g>
  </g>
  <g id="Group_13217" data-name="Group 13217" transform="translate(5.493 13.88)">
    <g id="Group_13216" data-name="Group 13216" transform="translate(0 0)">
      <rect id="Rectangle_3818" data-name="Rectangle 3818" width="2" height="1" transform="translate(-0.493 0.119)"/>
    </g>
  </g>
  <g id="Group_13219" data-name="Group 13219" transform="translate(8.239 13.88)">
    <g id="Group_13218" data-name="Group 13218" transform="translate(0 0)">
      <rect id="Rectangle_3819" data-name="Rectangle 3819" width="2" height="1" transform="translate(-0.239 0.119)"/>
    </g>
  </g>
  <g id="Group_13221" data-name="Group 13221" transform="translate(10.985 13.88)">
    <g id="Group_13220" data-name="Group 13220" transform="translate(0 0)">
      <rect id="Rectangle_3820" data-name="Rectangle 3820" width="1" height="1" transform="translate(0.015 0.119)"/>
    </g>
  </g>
  <g id="Group_13223" data-name="Group 13223" transform="translate(13.732 11.134)">
    <g id="Group_13222" data-name="Group 13222" transform="translate(0 0)">
      <rect id="Rectangle_3821" data-name="Rectangle 3821" width="1" height="2" transform="translate(0.268 -0.134)"/>
    </g>
  </g>
</svg>
