<svg xmlns="http://www.w3.org/2000/svg" width="14.937" height="62.344" viewBox="0 0 14.937 62.344">
  <g id="commute" transform="translate(0.75)">
    <g id="Ellipse_26" data-name="Ellipse 26" transform="translate(2.219)" fill="#fff" stroke="#232323" stroke-width="2">
      <ellipse cx="4.5" cy="4.858" rx="4.5" ry="4.858" stroke="none"/>
      <ellipse cx="4.5" cy="4.858" rx="3.5" ry="3.858" fill="none"/>
    </g>
    <line id="Line_23" data-name="Line 23" y2="22.671" transform="translate(6.719 15.654)" fill="none" stroke="#00a19b" stroke-width="2" stroke-dasharray="6 1"/>
    <g id="Iconly_Light_Location" data-name="Iconly/Light/Location" transform="translate(0 44.263)">
      <g id="Location">
        <path id="Path_33958" d="M0,7.229A7,7,0,0,1,6.741,0a7.006,7.006,0,0,1,6.7,7.278V7.36a11.076,11.076,0,0,1-3.043,6.892,18.027,18.027,0,0,1-3.142,2.793.769.769,0,0,1-1.065,0,17.96,17.96,0,0,1-4.421-4.469A9.752,9.752,0,0,1,0,7.253Z" transform="translate(0 0)" fill="none" stroke="#200e32" stroke-linecap="round" stroke-linejoin="round" stroke-miterlimit="10" stroke-width="1.5"/>
        <ellipse id="Ellipse_740" cx="2.153" cy="2.325" rx="2.153" ry="2.325" transform="translate(4.565 5.044)" fill="none" stroke="#200e32" stroke-linecap="round" stroke-linejoin="round" stroke-miterlimit="10" stroke-width="1.5"/>
      </g>
    </g>
  </g>
</svg>
