<svg id="earth" xmlns="http://www.w3.org/2000/svg" width="20.029" height="20.03" viewBox="0 0 20.029 20.03">
  <g id="Group_13177" data-name="Group 13177">
    <path id="Path_44569" data-name="Path 44569" d="M34.93,10.008l.019.149-.223.046-.03.317h.267l.355-.034.183-.218-.195-.076-.107-.123-.16-.26-.077-.367-.3.061-.084.129v.146l.145.1Z" transform="translate(-20.335 -5.553)"/>
    <path id="Path_44570" data-name="Path 44570" d="M33.965,10.719l.016-.2-.177-.076-.247.057-.183.294v.191h.214Z" transform="translate(-19.627 -6.142)"/>
    <path id="Path_44571" data-name="Path 44571" d="M22.006,13.155l-.054.14h-.263v.136h.063s0,.029.009.067l.161-.014.1-.063.026-.126.131-.011.051-.106-.12-.025Z" transform="translate(-12.754 -7.735)"/>
    <path id="Path_44572" data-name="Path 44572" d="M20.8,13.6l-.01.133.191-.016.02-.133-.115-.09Z" transform="translate(-12.224 -7.938)"/>
    <path id="Path_44573" data-name="Path 44573" d="M20.027,9.911c0-.293-.018-.584-.045-.87a9.954,9.954,0,0,0-.663-2.727c-.026-.064-.049-.129-.076-.192a10.027,10.027,0,0,0-1.878-2.9c-.051-.055-.1-.11-.156-.163-.148-.154-.3-.3-.457-.447a9.994,9.994,0,0,0-13.517.042A10.133,10.133,0,0,0,2.089,3.9,10.01,10.01,0,1,0,18.932,14.564a9.92,9.92,0,0,0,.818-2.205c.047-.2.088-.394.124-.594a10.015,10.015,0,0,0,.156-1.751C20.03,9.98,20.028,9.946,20.027,9.911Zm-1.885-4,.058-.065c.076.148.147.3.215.451l-.095,0-.179.025ZM16.7,4.161l0-.447q.236.25.454.517l-.18.269-.631-.006-.04-.131ZM4.614,3.049V3.033h.2l.017-.069h.328v.143l-.094.126H4.614V3.049Zm.32.447s.2-.034.218-.034,0,.2,0,.2L4.7,3.691l-.086-.1ZM18.78,7.472h-.733L17.6,7.139l-.47.046v.287h-.149l-.161-.115-.814-.206V6.624l-1.031.08-.32.172h-.409l-.2-.02-.5.276v.519l-1.016.733.084.313h.206L12.77,9l-.145.053-.008.779.878,1h.382l.023-.061h.687l.2-.183h.39l.214.214.581.06-.077.772.645,1.138-.339.649.023.306.267.267v.735l.351.472v.61h.3A9.187,9.187,0,0,1,1.557,6.418V6.131l.329-.4q.171-.323.367-.63l.015.167-.381.463c-.118.223-.229.451-.329.686v.523l.382.184v.727l.366.625.3.046.038-.214-.351-.542-.069-.527h.206l.087.542.508.741-.131.239.323.494.8.2v-.13l.321.046-.03.229.252.046.389.106.55.627.7.053L6.269,11l-.481.336-.023.512-.069.313.7.87.053.3s.252.068.283.068.565.4.565.4V15.38l.191.054-.13.726.321.428-.059.719.424.745.544.475.547.01.054-.176-.4-.339.023-.168.072-.206.015-.21-.272-.008-.137-.172.226-.217.03-.164L8.488,16.8l.015-.152.359-.054.546-.262L9.592,16l.573-.733-.13-.573.176-.305.527.016.355-.281.115-1.106.393-.5.069-.321-.359-.115-.237-.388-.809-.008-.642-.245-.03-.458-.214-.374L8.8,10.6l-.335-.526-.3-.145-.015.161-.542.032-.2-.276-.566-.115-.466.538-.733-.124L5.59,9.316l-.535-.091.215-.405-.061-.233-.7.47L4.063,9l-.158-.346L4,8.3l.244-.449.561-.284H5.891l0,.331.39.181-.031-.565.281-.283.567-.372L7.133,6.6,7.7,6.008l.6-.333-.053-.044.407-.383.149.04.068.086L9.025,5.2l.038-.017-.169-.024L8.722,5.1V4.94l.091-.075h.2l.092.04.08.161.1-.015V5.037l.028.009L9.592,5l.04-.138.161.04v.149l-.149.1h0l.022.164.51.157v.006l.117-.01.008-.221L9.9,5.07l-.023-.106.336-.115.015-.321-.351-.214-.023-.542-.481.236H9.195L9.241,3.6l-.655-.154-.271.2v.624l-.487.154-.2.407-.212.034V4.346l-.458-.063-.229-.149L6.641,3.8l.819-.479.4-.122.04.269.223-.012.017-.136.234-.033,0-.047-.1-.042-.023-.143.287-.024.173-.18.009-.013h0l.053-.054.6-.076.267.227-.7.373.891.21.115-.3h.389l.138-.26-.275-.069V2.559l-.863-.382-.6.069-.336.176.023.428L8.086,2.8l-.054-.236.337-.306-.611-.03-.175.053-.076.206.229.039L7.69,2.75,7.3,2.773l-.061.152-.565.016a1.548,1.548,0,0,0-.038-.32l.443-.008.337-.329-.184-.092-.244.237-.405-.023L6.338,2.07H5.819l-.542.4h.5l.045.145-.129.12.55.015.084.2L5.7,2.931l-.03-.153-.389-.084-.206-.115-.463,0a9.165,9.165,0,0,1,11.467.537l-.109.2-.424.166-.179.194.041.226.219.03.132.33.377-.152.062.441h-.114l-.31-.046-.344.058-.332.47-.475.075-.069.407.2.047-.058.262-.472-.095-.433.095-.092.241.075.506.254.119.426,0,.288-.026.088-.229.45-.585.3.061.292-.264.054.206.718.484-.088.118-.323-.017.124.176.2.044.233-.1,0-.281.1-.052-.083-.088-.479-.267L16.2,5.514h.4l.127.126.343.3.014.357.355.378.132-.518.246-.134.046.424.24.264.479-.008q.139.358.249.729ZM5.462,4.55,5.7,4.436l.217.052-.075.292-.235.075Zm1.277.687v.189H6.19l-.206-.057.051-.132L6.3,5.128H6.66v.109Zm.253.264v.183l-.138.089L6.683,5.8V5.5Zm-.155-.075V5.209l.189.172Zm.086.441v.178l-.131.132H6.5l.046-.2.138-.012L6.712,5.9ZM6.2,5.5h.3l-.389.544-.161-.086.035-.229Zm1.243.3v.178H7.147l-.08-.115V5.7H7.09Zm-.27-.245.083-.087.14.087-.112.093Zm11.76,2.376.029-.034c.012.052.025.1.036.157Z"/>
    <path id="Path_44574" data-name="Path 44574" d="M3.782,14.314V14.6c.1-.234.21-.462.329-.686Z" transform="translate(-2.224 -8.183)"/>
  </g>
</svg>
