
<svg width="18" height="18" viewBox="0 0 18 18" xmlns="http://www.w3.org/2000/svg" class="ListingBadge__StyledIcon-c65yqc-2 dlkuKZ" xmlns:xlink="http://www.w3.org/1999/xlink" aria-hidden="true" focusable="false"><path fill="#ffc043" d="M13.8735 7.11037L6.2435 15.7866C6.11344 15.9289 5.91835 16 5.70159 16C5.61488 16 5.5065 15.9822 5.4198 15.9467C5.13801 15.84 4.98627 15.5733 5.07298 15.3244L6.91546 9.7417H3.64234C3.40391 9.7417 3.18714 9.63502 3.07876 9.45723C2.97038 9.27944 2.97038 9.08387 3.10044 8.90607L9.86343 0.247571C10.0368 0.0342203 10.362 -0.0546761 10.6438 0.0342203C10.9256 0.123117 11.099 0.372026 11.0556 0.620936L9.99349 6.27474H13.3533C13.5918 6.27474 13.8302 6.38142 13.9386 6.55921C14.047 6.737 14.0036 6.95035 13.8735 7.11037Z"></path></svg>