<svg xmlns="http://www.w3.org/2000/svg" width="97.881" height="77.556" viewBox="0 0 97.881 77.556">
  <g id="g2" transform="translate(-854 -841.483)">
    <circle id="Ellipse_46" data-name="Ellipse 46" cx="32.5" cy="32.5" r="32.5" transform="translate(883 851)" fill="#f7dfa1"/>
    <g id="Group_13181" data-name="Group 13181" transform="translate(-249.006 58.443)">
      <g id="Group_13179" data-name="Group 13179" transform="translate(1103.006 784.89)">
        <path id="Path_44567" data-name="Path 44567" d="M71.035,1791.24l30.784-8.288,12.432,52.1-18.292,5.335-38.539,11.241,36.7,5.328,1.836-16.569" transform="translate(-18.16 -1782.952)" fill="none" stroke="#232323" stroke-width="3"/>
        <g id="Group_13135" data-name="Group 13135" transform="translate(0 2.601)">
          <path id="Path_44568" data-name="Path 44568" d="M1.728,51.256l14.961-4.605a1.7,1.7,0,0,0,.792-.47l26.883-28.8a12.516,12.516,0,0,0,3.36-7.608A9.679,9.679,0,0,0,45.45,2.529a7.951,7.951,0,0,0-6.637-2.5,10.7,10.7,0,0,0-7.087,3.659L4.92,32.483a1.817,1.817,0,0,0-.511.775L.049,49.348a1.7,1.7,0,0,0,.343,1.523ZM38.574,3.315c3.662-.289,6.4,2.674,6.108,6.617q0,.041-.006.082A8.339,8.339,0,0,1,42.4,15.171L33.775,5.733A7.448,7.448,0,0,1,38.574,3.315ZM31.467,8.281,40.1,17.637,16.678,42.653,8.037,33.38ZM6.577,36.759l6.95,7.53-9.847,3.06Z" transform="matrix(0.848, -0.53, 0.53, 0.848, 0, 25.307)"/>
        </g>
        <path id="home" d="M31.94,14.277l0,0L18.548.885a3.021,3.021,0,0,0-4.274,0L.891,14.268l-.014.014A3.021,3.021,0,0,0,2.888,19.43c.031,0,.062,0,.093,0h.533v9.853a3.541,3.541,0,0,0,3.537,3.537h5.239a.962.962,0,0,0,.962-.962V24.138a1.615,1.615,0,0,1,1.614-1.614h3.09a1.615,1.615,0,0,1,1.614,1.614v7.725a.962.962,0,0,0,.962.962H25.77a3.541,3.541,0,0,0,3.537-3.537V19.435H29.8a3.022,3.022,0,0,0,2.139-5.157Zm-1.362,2.912a1.092,1.092,0,0,1-.777.322H28.345a.962.962,0,0,0-.962.962V29.288A1.615,1.615,0,0,1,25.77,30.9H21.493V24.138A3.541,3.541,0,0,0,17.956,20.6h-3.09a3.541,3.541,0,0,0-3.537,3.537V30.9H7.052a1.615,1.615,0,0,1-1.614-1.613V18.473a.962.962,0,0,0-.962-.962H3.045l-.045,0a1.1,1.1,0,0,1-.757-1.874h0L15.634,2.245a1.1,1.1,0,0,1,1.553,0L30.574,15.631l.006.006a1.1,1.1,0,0,1,0,1.552Zm0,0" transform="translate(43.744 23.035) rotate(-17)" fill="#232323" stroke="#232323" stroke-width="0.25"/>
      </g>
    </g>
  </g>
</svg>
