<svg xmlns="http://www.w3.org/2000/svg" width="75.34" height="75.342" viewBox="0 0 75.34 75.342">
  <g id="g3" transform="translate(-1144 -845.624)">
    <circle id="Ellipse_45" data-name="Ellipse 45" cx="32.5" cy="32.5" r="32.5" transform="translate(1149 851)" fill="#f7dfa1"/>
    <g id="Group_13180" data-name="Group 13180" transform="translate(237.341 56.065)">
      <g id="communication" transform="translate(906.659 789.559)">
        <g id="Group_13133" data-name="Group 13133" transform="translate(0 0)">
          <path id="Path_44528" data-name="Path 44528" d="M22.513,310.338a9.609,9.609,0,1,0-16.041,0,10.487,10.487,0,0,0-6.465,9.62v5.886a1.471,1.471,0,0,0,1.472,1.471H27.506a1.471,1.471,0,0,0,1.472-1.471v-5.886A10.486,10.486,0,0,0,22.513,310.338Zm-8.021-11.946a6.664,6.664,0,1,1-6.666,6.662A6.672,6.672,0,0,1,14.492,298.392Zm11.542,25.98H2.95v-4.414A7.517,7.517,0,0,1,8.684,312.7a9.583,9.583,0,0,0,11.617,0,7.516,7.516,0,0,1,5.734,7.255Z" transform="translate(-0.007 -251.973)" fill="#232323"/>
          <path id="Path_44529" data-name="Path 44529" d="M337.6,310.338a9.607,9.607,0,1,0-16.038,0,10.487,10.487,0,0,0-6.468,9.621v5.886a1.472,1.472,0,0,0,1.472,1.471H342.6a1.471,1.471,0,0,0,1.472-1.471v-5.886A10.487,10.487,0,0,0,337.6,310.338Zm-8.021-11.946a6.664,6.664,0,1,1-6.662,6.662A6.672,6.672,0,0,1,329.577,298.392Zm11.546,25.98H318.035v-4.414a7.517,7.517,0,0,1,5.736-7.255,9.579,9.579,0,0,0,11.615,0,7.518,7.518,0,0,1,5.738,7.255v4.414Z" transform="translate(-268.727 -251.973)" fill="#232323"/>
          <path id="Path_44530" data-name="Path 44530" d="M83.114,38.883a1.472,1.472,0,0,0,2.265-1.211l.085-4.44A8.887,8.887,0,0,0,85.1,15.88,13.024,13.024,0,0,0,72.387,0H62.347a1.472,1.472,0,1,0,0,2.943h10.04a10.083,10.083,0,0,1,9.727,12.766h-20.1a8.9,8.9,0,0,0-8.764,7.416H49.3a1.472,1.472,0,0,0-.916.32l-8.715,6.932-.113-5.854a1.472,1.472,0,0,0-1.343-1.438,10.09,10.09,0,0,1,.886-20.141h10.04a1.472,1.472,0,0,0,0-2.943H39.094a13.036,13.036,0,0,0-2.461,25.833l.147,7.576a1.472,1.472,0,0,0,2.387,1.123L49.81,26.068h3.44a8.9,8.9,0,0,0,8.764,7.416H74.68ZM56.069,24.6a5.952,5.952,0,0,1,5.945-5.945H83.365a5.944,5.944,0,0,1,.523,11.866,1.471,1.471,0,0,0-1.343,1.438l-.058,3.032L75.9,30.773a1.472,1.472,0,0,0-.793-.232h-13.1A5.951,5.951,0,0,1,56.069,24.6Z" transform="translate(-22.223 0)" fill="#232323"/>
          <path id="Path_44531" data-name="Path 44531" d="M277.7,157.136a1.473,1.473,0,1,0,1.471,1.474v0A1.47,1.47,0,0,0,277.7,157.136Z" transform="translate(-235.583 -134.013)" fill="#232323"/>
          <path id="Path_44532" data-name="Path 44532" d="M334.448,157.136a1.473,1.473,0,1,0,1.472,1.474v0A1.47,1.47,0,0,0,334.448,157.136Z" transform="translate(-283.98 -134.013)" fill="#232323"/>
          <path id="Path_44533" data-name="Path 44533" d="M391.168,160.081a1.471,1.471,0,0,0,1.471-1.472v0a1.471,1.471,0,1,0-1.471,1.476Z" transform="translate(-332.353 -134.013)" fill="#232323"/>
          <path id="Path_44534" data-name="Path 44534" d="M219.254,2.943h.008a1.476,1.476,0,1,0-.008,0Z" transform="translate(-185.737 0)" fill="#232323"/>
        </g>
      </g>
    </g>
  </g>
</svg>
