<svg xmlns="http://www.w3.org/2000/svg" width="42.715" height="33.621" viewBox="0 0 42.715 33.621">
  <g id="Group_13465" data-name="Group 13465" transform="translate(-26.006 -156.837)">
    <circle id="Ellipse_41" data-name="Ellipse 41" cx="16" cy="16" r="16" transform="translate(36 158)" fill="#f7dfa1"/>
    <g id="Group_13136" data-name="Group 13136" transform="translate(-46 -1653.499)">
      <path id="Path_44567" data-name="Path 44567" d="M63.387,1786.585l13.493-3.633,5.449,22.834-8.018,2.339-16.893,4.927,16.088,2.335.8-7.262" transform="translate(31.795 28)" fill="none" stroke="#232323" stroke-width="1"/>
      <g id="Group_13135" data-name="Group 13135" transform="translate(72.006 1812.092)">
        <path id="Path_44568" data-name="Path 44568" d="M.758,22.466l6.558-2.019a.746.746,0,0,0,.347-.206L19.446,7.619a5.486,5.486,0,0,0,1.473-3.335,4.242,4.242,0,0,0-1-3.176A3.485,3.485,0,0,0,17.013.014a4.689,4.689,0,0,0-3.106,1.6L2.156,14.238a.8.8,0,0,0-.224.34L.022,21.63a.746.746,0,0,0,.15.668ZM16.908,1.453a2.525,2.525,0,0,1,2.677,2.9l0,.036a3.655,3.655,0,0,1-1,2.26L14.8,2.513A3.265,3.265,0,0,1,16.908,1.453ZM13.793,3.63l3.785,4.1L7.31,18.7,3.523,14.631ZM2.883,16.112l3.047,3.3L1.613,20.754Z" transform="matrix(0.848, -0.53, 0.53, 0.848, 0, 11.092)"/>
      </g>
      <path id="home" d="M14,6.258h0L8.13.388a1.324,1.324,0,0,0-1.873,0L.391,6.254.385,6.26a1.324,1.324,0,0,0,.881,2.257l.041,0h.234v4.319a1.552,1.552,0,0,0,1.55,1.55h2.3a.422.422,0,0,0,.422-.422V10.58a.708.708,0,0,1,.707-.707H7.87a.708.708,0,0,1,.707.707v3.386A.422.422,0,0,0,9,14.388h2.3a1.552,1.552,0,0,0,1.55-1.55V8.519h.217A1.325,1.325,0,0,0,14,6.258Zm-.6,1.276a.479.479,0,0,1-.341.141h-.638A.421.421,0,0,0,12,8.1v4.741a.708.708,0,0,1-.707.707H9.421V10.58A1.552,1.552,0,0,0,7.87,9.03H6.516a1.552,1.552,0,0,0-1.55,1.55v2.965H3.091a.708.708,0,0,1-.707-.707V8.1a.421.421,0,0,0-.422-.422H1.315a.481.481,0,0,1-.332-.821h0L6.853.984a.481.481,0,0,1,.681,0L13.4,6.852l0,0a.483.483,0,0,1,0,.68Zm0,0" transform="translate(91.18 1821.049) rotate(-17)" fill="#232323" stroke="#232323" stroke-width="0.25"/>
    </g>
  </g>
</svg>
