<svg xmlns="http://www.w3.org/2000/svg" width="44.22" height="42.364" viewBox="0 0 44.22 42.364">
  <g id="Group_13467" data-name="Group 13467" transform="translate(-31.937 -304.794)">
    <circle id="Ellipse_43" data-name="Ellipse 43" cx="16" cy="16" r="16" transform="translate(38 312)" fill="#f7dfa1"/>
    <g id="valuation" transform="translate(32.187 304.893)">
      <path id="Path_44535" data-name="Path 44535" d="M56.2,40.166a3.709,3.709,0,0,0,3.7-3.7V35.19a3.7,3.7,0,0,0-7.408,0v1.272A3.708,3.708,0,0,0,56.2,40.166Zm-2.652-4.975a2.652,2.652,0,0,1,5.3,0v1.272a2.652,2.652,0,0,1-5.3,0Zm0,0" transform="translate(-47.896 -28.561)" fill="#232323" stroke="#232323" stroke-width="0.5"/>
      <path id="Path_44536" data-name="Path 44536" d="M2.3,149.856h.025a2.224,2.224,0,0,0,1.247-.4L4,164.162c0,.012,0,.024,0,.036a1.508,1.508,0,0,0,1.506,1.365h5.863a1.507,1.507,0,0,0,1.506-1.368q0-.018,0-.036l.4-14.677a2.281,2.281,0,0,0,3.534-1.905v-7.768a3.828,3.828,0,0,0-3.425-4.167c-.091-.009-1.071-.016-2.914-.02h0a.527.527,0,0,0-.456.264l-1.594,2.779L6.922,135.9a.526.526,0,0,0-.462-.274H3.828A3.832,3.832,0,0,0,0,139.45c0,.111.016,7.8.017,8.128A2.279,2.279,0,0,0,2.3,149.856Zm-1.227-2.28c0-.08-.017-8.017-.017-8.127a2.779,2.779,0,0,1,2.776-2.776h2.32L7.958,140a.526.526,0,0,0,.918.01l1.91-3.33c1,0,2.352.008,2.515.014a2.775,2.775,0,0,1,2.471,3.04.464.464,0,0,0,0,.053v7.794a1.228,1.228,0,0,1-2.456.045v-.053a.526.526,0,0,0-.526-.517h0a.526.526,0,0,0-.522.526c0,.024,0,.047,0,.071l.009.562-.439,15.9a.459.459,0,0,1-.457.4H5.512a.459.459,0,0,1-.457-.4l-.47-15.9-.011-.684A.526.526,0,0,0,4.049,147h0a.526.526,0,0,0-.522.526A1.257,1.257,0,0,1,2.309,148.8H2.3a1.227,1.227,0,0,1-1.227-1.227Zm0,0" transform="translate(0 -123.547)" fill="#232323" stroke="#232323" stroke-width="0.5"/>
      <path id="Path_44537" data-name="Path 44537" d="M228.162,266.328l-4.181-3.044a.527.527,0,0,0-.619,0l-10.4,7.57a.526.526,0,1,0,.62.851l2.209-1.608v11.315a.526.526,0,0,0,.526.526h14.7a.526.526,0,0,0,.526-.526V270.1l2.21,1.608a.526.526,0,0,0,.619-.851l-2.829-2.06v-4.531a.526.526,0,0,0-.526-.526h-2.335a.526.526,0,0,0-.526.526Zm-4.987,14.557h-2.147v-4.716h2.147Zm7.321,0h-6.269v-5.242a.526.526,0,0,0-.526-.526h-3.2a.526.526,0,0,0-.526.526v5.242h-3.131V269.33l6.826-4.97,6.826,4.97Zm0-16.1v3.238l-1.282-.934v-2.3Zm0,0" transform="translate(-194.084 -239.921)" fill="#232323" stroke="#232323" stroke-width="0.5"/>
      <path id="Path_44538" data-name="Path 44538" d="M358.889,372.4h3.2a.526.526,0,0,0,.526-.526v-2.4a.526.526,0,0,0-.526-.526h-3.2a.526.526,0,0,0-.526.526v2.4A.526.526,0,0,0,358.889,372.4Zm.526-2.4h2.147v1.347h-2.147Zm0,0" transform="translate(-326.934 -336.412)" fill="#232323" stroke="#232323" stroke-width="0.5"/>
      <path id="Path_44539" data-name="Path 44539" d="M331.113,243.961a.526.526,0,1,0,1.052,0v-.024a.526.526,0,1,0-1.052,0Zm0,0" transform="translate(-302.074 -221.882)" fill="#232323" stroke="#232323" stroke-width="0.5"/>
      <path id="Path_44540" data-name="Path 44540" d="M331.113,203.787a.526.526,0,1,0,1.052,0v-2.573a.526.526,0,1,0-1.052,0Zm0,0" transform="translate(-302.074 -182.906)" fill="#232323" stroke="#232323" stroke-width="0.5"/>
      <path id="Path_44541" data-name="Path 44541" d="M331.639,159.023a.526.526,0,0,0,.526-.526v-2.545a.526.526,0,1,0-1.052,0V158.5A.526.526,0,0,0,331.639,159.023Zm0,0" transform="translate(-302.074 -141.614)" fill="#232323" stroke="#232323" stroke-width="0.5"/>
      <path id="Path_44542" data-name="Path 44542" d="M303.715,234.478a.526.526,0,0,0,1.052,0v-.143a.526.526,0,0,0-1.052,0Zm0,0" transform="translate(-277.079 -213.123)" fill="#232323" stroke="#232323" stroke-width="0.5"/>
      <path id="Path_44543" data-name="Path 44543" d="M304.241,174.466a.526.526,0,0,0,.526-.526v-4.175a.526.526,0,0,0-1.052,0v4.175A.526.526,0,0,0,304.241,174.466Zm0,0" transform="translate(-277.079 -154.215)" fill="#232323" stroke="#232323" stroke-width="0.5"/>
      <path id="Path_44544" data-name="Path 44544" d="M356.7,207.194a.526.526,0,1,0,1.052,0v-1.644a.526.526,0,1,0-1.052,0Zm0,0" transform="translate(-325.416 -186.862)" fill="#232323" stroke="#232323" stroke-width="0.5"/>
      <path id="Path_44545" data-name="Path 44545" d="M357.225,164.992a.526.526,0,0,0,.526-.526v-2.3a.526.526,0,1,0-1.052,0v2.3A.526.526,0,0,0,357.225,164.992Zm0,0" transform="translate(-325.416 -147.281)" fill="#232323" stroke="#232323" stroke-width="0.5"/>
      <path id="Path_44546" data-name="Path 44546" d="M285.814,61.546a.523.523,0,0,0,.5.309l1-.032.036,4.112a.526.526,0,0,0,.526.521h0a.526.526,0,0,0,.522-.531l-.041-4.65a.526.526,0,0,0-.543-.521l-.263.009,2.642-2.816,2.816,2.643-.508.016a.526.526,0,0,0-.509.526v3.984a.526.526,0,1,0,1.052,0V61.642l1.268-.04a.526.526,0,0,0,.343-.91l-4.126-3.873a.526.526,0,0,0-.744.023L285.91,60.97A.526.526,0,0,0,285.814,61.546Zm0,0" transform="translate(-260.705 -51.526)" fill="#232323" stroke="#232323" stroke-width="0.5"/>
      <path id="Path_44547" data-name="Path 44547" d="M440.551,281.572a.526.526,0,0,0,1.052,0v-.792a.526.526,0,0,0-1.052,0Zm0,0" transform="translate(-401.914 -255.494)" fill="#232323" stroke="#232323" stroke-width="0.5"/>
      <path id="Path_44548" data-name="Path 44548" d="M440.551,193.867a.526.526,0,0,0,1.052,0V187.46a.526.526,0,1,0-1.052,0Zm0,0" transform="translate(-401.914 -170.359)" fill="#232323" stroke="#232323" stroke-width="0.5"/>
      <path id="Path_44549" data-name="Path 44549" d="M440.551,165.556a.526.526,0,1,0,1.052,0v-.819a.526.526,0,0,0-1.052,0Zm0,0" transform="translate(-401.914 -149.629)" fill="#232323" stroke="#232323" stroke-width="0.5"/>
      <path id="Path_44550" data-name="Path 44550" d="M441.077,122.543a.526.526,0,0,0,.526-.526v-2.545a.526.526,0,1,0-1.052,0v2.545A.526.526,0,0,0,441.077,122.543Zm0,0" transform="translate(-401.914 -108.333)" fill="#232323" stroke="#232323" stroke-width="0.5"/>
      <path id="Path_44551" data-name="Path 44551" d="M413.148,226.932a.526.526,0,1,0,1.052,0v-.089a.526.526,0,1,0-1.052,0Zm0,0" transform="translate(-376.914 -206.287)" fill="#232323" stroke="#232323" stroke-width="0.5"/>
      <path id="Path_44552" data-name="Path 44552" d="M413.674,140.62a.526.526,0,0,0,.526-.526v-6.806a.526.526,0,1,0-1.052,0v6.806A.526.526,0,0,0,413.674,140.62Zm0,0" transform="translate(-376.914 -120.937)" fill="#232323" stroke="#232323" stroke-width="0.5"/>
      <path id="Path_44553" data-name="Path 44553" d="M466.659,168.547a.526.526,0,0,0-.526.526v5.114a.526.526,0,1,0,1.052,0v-5.114A.526.526,0,0,0,466.659,168.547Zm0,0" transform="translate(-425.253 -153.585)" fill="#232323" stroke="#232323" stroke-width="0.5"/>
      <path id="Path_44554" data-name="Path 44554" d="M466.659,248.395a.526.526,0,0,0-.526.526v4.457a.526.526,0,1,0,1.052,0v-4.457A.526.526,0,0,0,466.659,248.395Zm0,0" transform="translate(-425.253 -226.43)" fill="#232323" stroke="#232323" stroke-width="0.5"/>
      <path id="Path_44555" data-name="Path 44555" d="M466.659,320.91a.526.526,0,0,0-.526.526v.279a.526.526,0,0,0,1.052,0v-.279A.526.526,0,0,0,466.659,320.91Zm0,0" transform="translate(-425.253 -292.585)" fill="#232323" stroke="#232323" stroke-width="0.5"/>
      <path id="Path_44556" data-name="Path 44556" d="M466.659,125.156a.526.526,0,0,0-.526.526v2.3a.526.526,0,1,0,1.052,0v-2.3A.526.526,0,0,0,466.659,125.156Zm0,0" transform="translate(-425.253 -113.999)" fill="#232323" stroke="#232323" stroke-width="0.5"/>
      <path id="Path_44557" data-name="Path 44557" d="M399.963.341a.526.526,0,0,0-.744.024L395.347,4.49a.527.527,0,0,0,.4.886l.995-.032.037,5.225a.526.526,0,0,0,.526.522h0a.526.526,0,0,0,.523-.53L397.79,4.8a.526.526,0,0,0-.543-.522l-.264.008,2.643-2.816,2.816,2.643-.508.016a.526.526,0,0,0-.509.526v5.739a.526.526,0,0,0,1.052,0V5.163l1.268-.04a.526.526,0,0,0,.343-.91Zm0,0" transform="translate(-360.545 0)" fill="#232323" stroke="#232323" stroke-width="0.5"/>
      <path id="Path_44558" data-name="Path 44558" d="M231.746,287.954a.526.526,0,1,0,1.052,0v-.178a.526.526,0,0,0-1.052,0Zm0,0" transform="translate(-211.421 -261.877)" fill="#232323" stroke="#232323" stroke-width="0.5"/>
      <path id="Path_44559" data-name="Path 44559" d="M231.746,240.113a.526.526,0,1,0,1.052,0v-2.419a.526.526,0,0,0-1.052,0Zm0,0" transform="translate(-211.421 -216.187)" fill="#232323" stroke="#232323" stroke-width="0.5"/>
      <path id="Path_44560" data-name="Path 44560" d="M232.272,212.139a.526.526,0,0,0,.526-.526v-.946a.526.526,0,1,0-1.052,0v.946A.526.526,0,0,0,232.272,212.139Zm0,0" transform="translate(-211.421 -191.531)" fill="#232323" stroke="#232323" stroke-width="0.5"/>
      <path id="Path_44561" data-name="Path 44561" d="M204.348,324.294a.526.526,0,0,0,1.052,0v-.276a.526.526,0,1,0-1.052,0Zm0,0" transform="translate(-186.426 -294.941)" fill="#232323" stroke="#232323" stroke-width="0.5"/>
      <path id="Path_44562" data-name="Path 44562" d="M204.348,273.948a.526.526,0,1,0,1.052,0v-3.128a.526.526,0,0,0-1.052,0Zm0,0" transform="translate(-186.426 -246.407)" fill="#232323" stroke="#232323" stroke-width="0.5"/>
      <path id="Path_44563" data-name="Path 44563" d="M204.874,191.809a.526.526,0,0,0,.526-.526v-6.015a.526.526,0,0,0-1.052,0v6.015A.526.526,0,0,0,204.874,191.809Zm0,0" transform="translate(-186.426 -168.359)" fill="#232323" stroke="#232323" stroke-width="0.5"/>
      <path id="Path_44564" data-name="Path 44564" d="M257.328,260.313a.526.526,0,1,0,1.052,0v-.045a.526.526,0,0,0-1.052,0Zm0,0" transform="translate(-234.76 -236.782)" fill="#232323" stroke="#232323" stroke-width="0.5"/>
      <path id="Path_44565" data-name="Path 44565" d="M257.854,182.27a.526.526,0,0,0,.526-.526v-5.9a.526.526,0,1,0-1.052,0v5.9A.526.526,0,0,0,257.854,182.27Zm0,0" transform="translate(-234.76 -159.76)" fill="#232323" stroke="#232323" stroke-width="0.5"/>
      <path id="Path_44566" data-name="Path 44566" d="M186.943,5.378l.992-.032.039,9.862a.526.526,0,0,0,.526.524h0a.526.526,0,0,0,.524-.528l-.04-10.4a.527.527,0,0,0-.543-.524l-.264.009,2.643-2.816,2.816,2.643-.508.016a.527.527,0,0,0-.51.526v9.738a.526.526,0,0,0,1.052,0V5.165l1.268-.04a.526.526,0,0,0,.343-.91L191.159.343a.527.527,0,0,0-.744.024l-3.872,4.126a.526.526,0,0,0,.4.886Zm0,0" transform="translate(-170.053 -0.002)" fill="#232323" stroke="#232323" stroke-width="0.5"/>
    </g>
  </g>
</svg>
