<svg xmlns="http://www.w3.org/2000/svg" width="38.681" height="39.124" viewBox="0 0 38.681 39.124">
  <g id="Group_13466" data-name="Group 13466" transform="translate(-32.969 -234.876)">
    <circle id="Ellipse_44" data-name="Ellipse 44" cx="16" cy="16" r="16" transform="translate(37 242)" fill="#f7dfa1"/>
    <g id="communication" transform="translate(32.962 234.876)">
      <g id="Group_13133" data-name="Group 13133" transform="translate(0.007 0)">
        <path id="Path_44528" data-name="Path 44528" d="M11.562,303.094a4.934,4.934,0,1,0-8.236,0,5.384,5.384,0,0,0-3.319,4.939v3.022a.756.756,0,0,0,.756.755H14.126a.756.756,0,0,0,.756-.755v-3.022A5.384,5.384,0,0,0,11.562,303.094ZM7.444,296.96a3.422,3.422,0,1,1-3.423,3.421A3.425,3.425,0,0,1,7.444,296.96ZM13.37,310.3H1.518v-2.266a3.859,3.859,0,0,1,2.944-3.725,4.92,4.92,0,0,0,5.964,0,3.859,3.859,0,0,1,2.944,3.725Z" transform="translate(-0.007 -273.127)" fill="#232323"/>
        <path id="Path_44529" data-name="Path 44529" d="M326.647,303.093a4.932,4.932,0,1,0-8.234,0,5.384,5.384,0,0,0-3.321,4.939v3.022a.756.756,0,0,0,.756.755h13.365a.756.756,0,0,0,.756-.755v-3.022A5.384,5.384,0,0,0,326.647,303.093Zm-4.118-6.133a3.422,3.422,0,1,1-3.42,3.421A3.425,3.425,0,0,1,322.529,296.96Zm5.928,13.339H316.6v-2.266a3.859,3.859,0,0,1,2.945-3.725,4.918,4.918,0,0,0,5.963,0,3.86,3.86,0,0,1,2.946,3.725V310.3Z" transform="translate(-291.287 -273.127)" fill="#232323"/>
        <path id="Path_44530" data-name="Path 44530" d="M55.351,19.964a.756.756,0,0,0,1.163-.622l.044-2.28a4.563,4.563,0,0,0-.185-8.909A6.687,6.687,0,0,0,49.844,0H44.689a.756.756,0,1,0,0,1.511h5.155a5.177,5.177,0,0,1,4.994,6.554H44.518a4.57,4.57,0,0,0-4.5,3.808h-2.03a.756.756,0,0,0-.47.164L33.043,15.6l-.058-3.006a.756.756,0,0,0-.69-.738A5.18,5.18,0,0,1,32.75,1.511H37.9A.756.756,0,1,0,37.9,0H32.75a6.693,6.693,0,0,0-1.263,13.263l.075,3.89a.756.756,0,0,0,1.226.577l5.464-4.346h1.766a4.57,4.57,0,0,0,4.5,3.808h6.5ZM41.466,12.628a3.056,3.056,0,0,1,3.052-3.052H55.48a3.052,3.052,0,0,1,.268,6.092.755.755,0,0,0-.69.738l-.03,1.557L51.649,15.8a.756.756,0,0,0-.407-.119H44.518A3.055,3.055,0,0,1,41.466,12.628Z" transform="translate(-24.088 0)" fill="#232323"/>
        <path id="Path_44531" data-name="Path 44531" d="M276.986,157.136a.756.756,0,1,0,.755.757v0A.755.755,0,0,0,276.986,157.136Z" transform="translate(-255.361 -145.264)" fill="#232323"/>
        <path id="Path_44532" data-name="Path 44532" d="M333.732,157.136a.756.756,0,1,0,.756.757v0A.755.755,0,0,0,333.732,157.136Z" transform="translate(-307.821 -145.264)" fill="#232323"/>
        <path id="Path_44533" data-name="Path 44533" d="M390.452,158.648a.755.755,0,0,0,.755-.756v0a.756.756,0,1,0-.755.758Z" transform="translate(-360.254 -145.264)" fill="#232323"/>
        <path id="Path_44534" data-name="Path 44534" d="M218.538,1.511h0a.756.756,0,1,0-.76-.756A.754.754,0,0,0,218.543,1.511Z" transform="translate(-201.33 0)" fill="#232323"/>
      </g>
    </g>
  </g>
</svg>
