<svg xmlns="http://www.w3.org/2000/svg" width="15.864" height="14.638" viewBox="0 0 15.864 14.638">
  <path id="home" d="M15.195,6.258h0L8.823.388a1.526,1.526,0,0,0-2.033,0L.424,6.254.417,6.26a1.253,1.253,0,0,0,0,1.87,1.489,1.489,0,0,0,.954.386l.044,0h.254v4.319a1.622,1.622,0,0,0,1.683,1.55H5.847a.441.441,0,0,0,.457-.422V10.58a.74.74,0,0,1,.768-.707h1.47a.74.74,0,0,1,.768.707v3.386a.441.441,0,0,0,.457.422h2.492a1.622,1.622,0,0,0,1.683-1.55V8.519h.235a1.492,1.492,0,0,0,1.017-.388,1.254,1.254,0,0,0,0-1.872Zm-.648,1.276a.543.543,0,0,1-.37.141h-.693a.441.441,0,0,0-.457.422v4.741a.74.74,0,0,1-.768.707H10.225V10.58A1.622,1.622,0,0,0,8.542,9.03H7.072a1.622,1.622,0,0,0-1.683,1.55v2.965H3.355a.74.74,0,0,1-.768-.707V8.1a.441.441,0,0,0-.457-.422h-.7a.541.541,0,0,1-.36-.14.456.456,0,0,1,0-.681h0L7.438.984a.554.554,0,0,1,.739,0l6.368,5.867,0,0a.456.456,0,0,1,0,.68Zm0,0" transform="translate(0.125 0.125)" fill="#232323" stroke="#232323" stroke-width="0.25"/>
</svg>
