<svg xmlns="http://www.w3.org/2000/svg" width="76.089" height="94.55" viewBox="0 0 76.089 94.55">
  <g id="ico81" transform="translate(0)">
    <circle id="Ellipse_47" data-name="Ellipse 47" cx="35" cy="35" r="35" fill="#f7dfa1"/>
    <g id="Group_13188" data-name="Group 13188" transform="translate(5469 -4975.05)">
      <g id="sale_2_" data-name="sale (2)" transform="translate(-5475.6 4980.5)">
        <g id="Group_13187" data-name="Group 13187" transform="translate(6.6)">
          <g id="Group_13186" data-name="Group 13186">
            <path id="Path_44582" data-name="Path 44582" d="M82.689,8.747V1.372A1.282,1.282,0,0,0,81.479,0H7.81A1.282,1.282,0,0,0,6.6,1.372V87.728A1.282,1.282,0,0,0,7.81,89.1h7.034a1.282,1.282,0,0,0,1.21-1.372V10.119H31.711v7.89H28.534c-3.4,0-6.2,3.173-6.2,7.032V48.795c0,3.859,2.8,7.032,6.2,7.032H76.487c3.4,0,6.2-3.173,6.2-7.032V24.955c0-3.859-2.8-7.032-6.2-7.032H73.31v-7.89h8.169v.086A1.282,1.282,0,0,0,82.689,8.747Zm-6.2,11.92a4.072,4.072,0,0,1,3.782,4.288v23.84a4.069,4.069,0,0,1-3.782,4.288H28.459a4.072,4.072,0,0,1-3.782-4.288V24.955a4.069,4.069,0,0,1,3.782-4.288ZM33.98,18.009v-7.89H70.89v7.89ZM80.269,7.375H73.31a1.135,1.135,0,0,0-2.269,0H33.98a1.135,1.135,0,0,0-2.269,0H14.844a1.282,1.282,0,0,0-1.21,1.372V86.356H9.02V2.658H80.269Z" transform="translate(-6.6)"/>
          </g>
        </g>
      </g>
      <path id="home" d="M24.914,10.912l0,0L14.677.676a2.31,2.31,0,0,0-3.267,0L1.181,10.905l-.01.011a2.309,2.309,0,0,0,1.537,3.935c.024,0,.047,0,.071,0h.408v7.532a2.706,2.706,0,0,0,2.7,2.7h4a.735.735,0,0,0,.735-.735v-5.9a1.235,1.235,0,0,1,1.234-1.233h2.362a1.235,1.235,0,0,1,1.233,1.233v5.9a.735.735,0,0,0,.735.735h4a2.706,2.706,0,0,0,2.7-2.7V14.854h.378a2.31,2.31,0,0,0,1.635-3.942Zm-1.041,2.226a.835.835,0,0,1-.594.246H22.165a.735.735,0,0,0-.735.735v8.267A1.235,1.235,0,0,1,20.2,23.619H16.928v-5.17a2.706,2.706,0,0,0-2.7-2.7H11.863a2.707,2.707,0,0,0-2.7,2.7v5.17H5.89a1.235,1.235,0,0,1-1.233-1.233V14.119a.735.735,0,0,0-.735-.735H2.828l-.034,0a.839.839,0,0,1-.578-1.432h0L12.45,1.715a.839.839,0,0,1,1.187,0L23.869,11.947l0,0a.841.841,0,0,1,0,1.186Zm0,0" transform="translate(-5436.5 5004.473)"/>
    </g>
  </g>
</svg>
