<svg xmlns="http://www.w3.org/2000/svg" width="40.133" height="40.304" viewBox="0 0 40.133 40.304">
  <g id="iconwhatsapp" transform="translate(-3.868 -4)">
    <path id="Path_44747" data-name="Path 44747" d="M4.868,43.3l2.694-9.835a18.987,18.987,0,1,1,16.452,9.506h-.008a18.965,18.965,0,0,1-9.073-2.311Z" fill="#fff"/>
    <path id="Path_44748" data-name="Path 44748" d="M4.868,43.8a.5.5,0,0,1-.482-.631l2.639-9.636A19.484,19.484,0,1,1,14.87,41.2L4.995,43.786A.457.457,0,0,1,4.868,43.8Z" fill="#fff"/>
    <path id="Path_44749" data-name="Path 44749" d="M24.014,5a18.987,18.987,0,0,1,0,37.974h-.008a18.965,18.965,0,0,1-9.073-2.311L4.868,43.3l2.694-9.835A18.989,18.989,0,0,1,24.014,5m0,37.974h0m0,0h0M24.014,4h0A19.992,19.992,0,0,0,6.488,33.6L3.9,43.04a1,1,0,0,0,1.219,1.231l9.687-2.54A19.988,19.988,0,1,0,24.014,4Z" fill="#cfd8dc"/>
    <path id="Path_44750" data-name="Path 44750" d="M35.176,12.832A15.782,15.782,0,0,0,10.645,32.376l.376.6-1.6,5.821L15.4,37.228l.577.342a15.75,15.75,0,0,0,8.032,2.2h.006A15.782,15.782,0,0,0,35.176,12.832Z" fill="#40c351"/>
    <path id="Path_44751" data-name="Path 44751" d="M19.268,16.045c-.355-.79-.729-.806-1.068-.82-.277-.012-.593-.011-.909-.011a1.744,1.744,0,0,0-1.265.594,5.317,5.317,0,0,0-1.661,3.956A9.225,9.225,0,0,0,16.3,24.67c.237.316,3.282,5.259,8.1,7.161,4.007,1.58,4.823,1.266,5.693,1.187a4.789,4.789,0,0,0,3.2-2.255,3.973,3.973,0,0,0,.277-2.255c-.119-.2-.435-.316-.909-.554s-2.807-1.385-3.242-1.543-.751-.237-1.068.238-1.225,1.543-1.5,1.859-.554.357-1.028.119a12.986,12.986,0,0,1-3.815-2.354,14.293,14.293,0,0,1-2.639-3.285c-.277-.474-.03-.731.208-.968.213-.213.474-.554.712-.831a3.244,3.244,0,0,0,.474-.791.872.872,0,0,0-.04-.831C20.612,19.329,19.69,16.983,19.268,16.045Z" fill="#fff" fill-rule="evenodd"/>
  </g>
</svg>
