<svg xmlns="http://www.w3.org/2000/svg" width="37" height="50.528" viewBox="0 0 37 50.528">
  <g id="markerhome" transform="translate(0 -0.472)">
    <g id="Group_13146" data-name="Group 13146" transform="translate(0 0)">
      <path id="Polygon_1" data-name="Polygon 1" d="M10,0,20,15H0Z" transform="translate(28.76 51) rotate(-180)" fill="#ffb600"/>
      <rect id="Rectangle_3795" data-name="Rectangle 3795" width="37" height="38" rx="5" transform="translate(0 0.472)" fill="#ffb600"/>
    </g>
    <path id="home" d="M20.259,8.832l0,0L11.974.547a1.869,1.869,0,0,0-2.644,0L1.051,8.826l-.008.009A1.869,1.869,0,0,0,2.287,12.02l.058,0h.33v6.1a2.19,2.19,0,0,0,2.188,2.188H8.1a.6.6,0,0,0,.595-.595V14.932a1,1,0,0,1,1-1h1.911a1,1,0,0,1,1,1v4.779a.6.6,0,0,0,.595.595h3.241a2.19,2.19,0,0,0,2.188-2.188v-6.1h.306a1.87,1.87,0,0,0,1.323-3.191Zm-.842,1.8a.675.675,0,0,1-.481.2h-.9a.6.6,0,0,0-.595.595v6.691a1,1,0,0,1-1,1H13.8V14.932a2.191,2.191,0,0,0-2.188-2.188H9.7a2.191,2.191,0,0,0-2.188,2.188v4.184H4.862a1,1,0,0,1-1-1V11.427a.6.6,0,0,0-.595-.595H2.356a.679.679,0,0,1-.468-1.159h0l8.283-8.283a.679.679,0,0,1,.961,0l8.281,8.281,0,0a.681.681,0,0,1,0,.96Zm0,0" transform="translate(7.76 8.693)" fill="#fff"/>
  </g>
</svg>
