<svg width="80" height="80" fill="none" xmlns="http://www.w3.org/2000/svg"><path d="M38.831 10.875l-6.6 5.427a1.57 1.57 0 00-.195 2.256 1.686 1.686 0 002.327.189l5.538-4.544 5.557 4.55c.165.136.357.24.563.303a1.697 1.697 0 001.26-.102c.192-.096.363-.229.503-.39a1.554 1.554 0 00.207-1.767 1.611 1.611 0 00-.401-.488l-6.6-5.427a1.682 1.682 0 00-1.077-.384 1.68 1.68 0 00-1.075.39l-.007-.013zm30.842 23.52c.184.15.332.337.433.548.102.212.154.442.155.675v30.227a5.566 5.566 0 01-1.707 3.99 5.921 5.921 0 01-4.115 1.655H15.362a5.921 5.921 0 01-4.114-1.656 5.566 5.566 0 01-1.707-3.99V35.619a1.568 1.568 0 01.587-1.223l6.217-5.056a1.697 1.697 0 011.823-.2c.193.096.364.229.504.389s.246.346.312.547a1.554 1.554 0 01-.106 1.22c-.1.187-.235.353-.4.489l-4.621 3.763 7.141 4.896v-15.36a4.04 4.04 0 011.24-2.9 4.298 4.298 0 012.99-1.202h29.364c1.122 0 2.198.432 2.992 1.201a4.04 4.04 0 011.239 2.901v15.36l7.148-4.902-4.58-3.75a1.569 1.569 0 01-.195-2.256 1.685 1.685 0 012.327-.189l6.15 5.05zm-45.395 8.32L39.901 53.43l15.622-10.714V25.11a.889.889 0 00-.273-.638.946.946 0 00-.658-.265H25.21a.946.946 0 00-.658.265.889.889 0 00-.272.638v17.606zm42.683-3.93l-18.645 12.8L61.68 61.48c.35.255.581.634.643 1.054.062.42-.05.846-.313 1.186a1.689 1.689 0 01-2.31.32L45.49 53.512l-4.62 3.2a1.686 1.686 0 01-1.907 0l-4.62-3.2L20.14 64.04a1.689 1.689 0 01-2.31-.32 1.564 1.564 0 01-.313-1.186c.062-.42.293-.8.643-1.054l13.326-9.907L12.84 38.786v27.059c.001.648.268 1.269.74 1.727a2.568 2.568 0 001.78.718h49.08a2.568 2.568 0 001.781-.718 2.415 2.415 0 00.74-1.727v-27.06z" fill="#043A30"/><path d="M45.927 31.115a1.604 1.604 0 00-.39-.508 1.68 1.68 0 00-1.18-.43 1.67 1.67 0 00-1.148.504 29.875 29.875 0 00-4.94 6.961 11.478 11.478 0 00-3.16-1.523 1.7 1.7 0 00-1.264.101c-.193.097-.364.23-.505.391-.14.162-.246.348-.311.55a1.553 1.553 0 00.112 1.224 1.652 1.652 0 00.976.786 8.07 8.07 0 013.493 2.18c.187.198.424.348.687.435.263.086.545.107.819.06l.07-.015c.264-.055.51-.17.717-.339.207-.167.368-.382.47-.624a26.641 26.641 0 015.261-7.975 1.557 1.557 0 00.293-1.778z" fill="#043A30"/></svg>