<svg xmlns="http://www.w3.org/2000/svg" width="275.838" height="275.74" viewBox="0 0 275.838 275.74">
  <g id="noun_choose-home_1978942" transform="translate(0.002 -0.001)">
    <path id="Path_44698" data-name="Path 44698" d="M50.154,60A2.154,2.154,0,0,0,48,62.154V75.081a2.154,2.154,0,1,0,4.309,0V62.154A2.154,2.154,0,0,0,50.154,60Z" transform="translate(55.414 69.263)" fill="#00a19b"/>
    <ellipse id="Ellipse_72" data-name="Ellipse 72" cx="2.5" cy="2" rx="2.5" ry="2" transform="translate(102.998 120.752)" fill="#00a19b"/>
    <path id="Path_44699" data-name="Path 44699" d="M67.4,45.782h5.386a2.154,2.154,0,0,1,1.206.366L87.049,31.477,67.25,9.329A7.282,7.282,0,0,0,61.648,7a7.67,7.67,0,0,0-5.515,2.542L8.521,63.017l-.194.194A7.411,7.411,0,0,0,6,67.326H57.706a6.463,6.463,0,0,1,1.616-4.761L70.5,50.091H67.4a2.154,2.154,0,0,1,0-4.309ZM56.628,58.708H51.242a2.154,2.154,0,1,1,0-4.309h5.386a2.154,2.154,0,0,1,0,4.309Zm0-8.618H51.242a2.154,2.154,0,0,1,0-4.309h5.386a2.154,2.154,0,0,1,0,4.309Z" transform="translate(6.929 8.077)" fill="#00a19b"/>
    <path id="Path_44700" data-name="Path 44700" d="M71.1,4.911,97.7,35.288h0l2.865-3.232h0L74.308,1.959l-.172-.172c-2.607-2.391-7.2-2.758-10.9,1.25L.541,73.572a2.159,2.159,0,0,0,3.232,2.865L66.445,5.945C68.362,3.855,70.172,4.071,71.1,4.911Z" transform="translate(0 0)" fill="#00a19b"/>
    <path id="Path_44701" data-name="Path 44701" d="M101,50.09H97.772l11.375,12.926a6.463,6.463,0,0,1,1.551,4.309H162.4a7.411,7.411,0,0,0-2.154-4.093l-.194-.194L112.271,9.523A7.67,7.67,0,0,0,106.756,7a7.282,7.282,0,0,0-5.6,2.348L87,25.164V37.81l7.347,8.381h0a2.154,2.154,0,0,1,1.271-.409H101a2.154,2.154,0,1,1,0,4.309Zm10.772-4.309h5.386a2.154,2.154,0,0,1,0,4.309h-5.386a2.154,2.154,0,0,1,0-4.309Zm0,8.618h5.386a2.154,2.154,0,0,1,0,4.309h-5.386a2.154,2.154,0,0,1,0-4.309Z" transform="translate(100.436 8.078)" fill="#00a19b"/>
    <path id="Path_44702" data-name="Path 44702" d="M112.457,3.037c-3.727-4.007-8.294-3.641-10.9-1.25l-.172.172L86.69,18.742a6.463,6.463,0,0,1,.668,2.8v2.995L104.593,4.911c.991-.84,2.779-1.056,4.718,1.034l62.672,70.492a2.159,2.159,0,1,0,3.232-2.865Z" transform="translate(100.078 0)" fill="#00a19b"/>
    <path id="Path_44703" data-name="Path 44703" d="M146.186,47.4V21.543a2.154,2.154,0,0,0-2.154-2.154h-8.618a2.154,2.154,0,0,0-2.154,2.154v11.2L106.308,1.959l-.172-.172c-2.607-2.391-7.2-2.758-10.9,1.25L32.541,73.572a2.159,2.159,0,0,0,3.232,2.865L98.445,5.945c1.939-2.154,3.727-1.874,4.718-1.034l62.952,71.914a2.154,2.154,0,0,0,3.232-2.844L146.186,47.4Z" transform="translate(36.941 0)" fill="#00a19b"/>
    <path id="Path_44704" data-name="Path 44704" d="M82.154,60A2.154,2.154,0,0,0,80,62.154V75.081a2.154,2.154,0,0,0,4.309,0V62.154A2.154,2.154,0,0,0,82.154,60Z" transform="translate(92.355 69.263)" fill="#00a19b"/>
    <ellipse id="Ellipse_73" data-name="Ellipse 73" cx="2.5" cy="2" rx="2.5" ry="2" transform="translate(171.998 120.752)" fill="#00a19b"/>
    <path id="Path_44705" data-name="Path 44705" d="M140.507,178.019a10.3,10.3,0,0,0-7.347-2.973h0a10.363,10.363,0,0,0-6.829,2.5v-.517a10.535,10.535,0,0,0-3.081-7.562,10.3,10.3,0,0,0-7.3-3.038h0a10.32,10.32,0,0,0-6.118,2.025h0a10.535,10.535,0,0,0-3.059-7.54,10.3,10.3,0,0,0-7.346-3.1h0a10.32,10.32,0,0,0-6.463,2.305V149.344h27.49a2.154,2.154,0,1,0,0-4.309h-4.89v-37.1a9.005,9.005,0,0,0-9.544-8.294h-24a9.005,9.005,0,0,0-9.544,8.294v15.081a2.154,2.154,0,0,0,4.309,0V107.936a4.8,4.8,0,0,1,5.235-3.986h24a4.74,4.74,0,0,1,5.235,3.986v36.948h-18.2v-6.636a10.514,10.514,0,0,0-3.059-7.54,10.3,10.3,0,0,0-7.3-3.059h0a10.6,10.6,0,0,0-10.513,10.557v6.679H45.928a3.663,3.663,0,0,1-3.619-3.706V71.807H145.72v69.372a3.663,3.663,0,0,1-3.619,3.706H135.81a2.154,2.154,0,0,0,0,4.309H142.1a7.971,7.971,0,0,0,7.928-8.014V68.188a6.463,6.463,0,0,0-2.391-4.826L99.25,9.329A7.282,7.282,0,0,0,93.648,7a7.584,7.584,0,0,0-5.537,2.542L40.521,63.017l-.194.215A6.786,6.786,0,0,0,38,68.188v72.991a7.971,7.971,0,0,0,7.928,8.014H72.083l-.323,49.551c-3.189-5.451-8.014-12-13.637-14a10.061,10.061,0,0,0-8.251.5,7.907,7.907,0,0,0-4.7,4.718c-2,5.149.259,12.926,6.657,22.643l22.944,42.162a4.826,4.826,0,0,0-4.46,4.826v1.637a2.154,2.154,0,0,0,.6,3.9,4.8,4.8,0,0,0,4.309,2.542h59.2a4.826,4.826,0,0,0,4.826-4.8v-3.275a4.8,4.8,0,0,0-.388-1.9l.711-.323a2.154,2.154,0,0,0-1.7-3.921,208.479,208.479,0,0,0,5.472-37.271s0-.108,0-.172v-.732c0-1.767.129-3.555.151-5.364a2.154,2.154,0,0,0,0-.539l.151-23.7A10.535,10.535,0,0,0,140.507,178.019ZM99.4,45.782h5.386a2.154,2.154,0,0,1,0,4.309H99.4a2.154,2.154,0,1,1,0-4.309Zm0,8.618h5.386a2.154,2.154,0,0,1,0,4.309H99.4a2.154,2.154,0,1,1,0-4.309ZM83.243,45.782h5.386a2.154,2.154,0,1,1,0,4.309H83.243a2.154,2.154,0,1,1,0-4.309Zm0,8.618h5.386a2.154,2.154,0,1,1,0,4.309H83.243a2.154,2.154,0,1,1,0-4.309Zm55.821,160.761a203.782,203.782,0,0,1-5.968,39.6H79.666L55.515,210.378c-7.368-11.332-7.153-16.632-6.463-18.786a3.706,3.706,0,0,1,2.154-2.305,2.153,2.153,0,0,0,.474-.194,5.8,5.8,0,0,1,4.955-.345c6.765,2.413,13.271,15.081,15.21,19.67a2.155,2.155,0,0,0,.474.689q.341.232.689.452a2.154,2.154,0,0,0,.819.172h0q.4-.109.8-.215h0a2.155,2.155,0,0,0,.689-.474q.231-.342.452-.689a2.154,2.154,0,0,0,.172-.819l.452-69.393a6.269,6.269,0,0,1,6.269-6.183h0a6.032,6.032,0,0,1,4.309,1.788,6.226,6.226,0,0,1,1.81,4.481l-.431,69.393a2.154,2.154,0,0,0,2.154,2.154h0a2.887,2.887,0,0,0,2.434-2.413l.259-38.995a6.269,6.269,0,0,1,6.2-6.248h0a6.011,6.011,0,0,1,4.309,1.788,6.248,6.248,0,0,1,1.81,4.481v8.639l-.215,30.765a2.154,2.154,0,0,0,2.154,2.154h0a2.154,2.154,0,0,0,2.154-2.154v-2.348a2.006,2.006,0,0,0,0-.237l.172-28.567a6.269,6.269,0,0,1,6.162-5.9h0a6.011,6.011,0,0,1,4.309,1.788,6.248,6.248,0,0,1,1.767,4.46l-.151,30.377a3.225,3.225,0,0,0,2.736,2.456h0a2.154,2.154,0,0,0,2.154-2.154l.172-22.083a6.291,6.291,0,0,1,6.226-6.226h0a6.011,6.011,0,0,1,4.309,1.788,6.248,6.248,0,0,1,1.788,4.4Z" transform="translate(43.87 8.077)" fill="#00a19b"/>
    <path id="Path_44706" data-name="Path 44706" d="M34.879,114.585a2.154,2.154,0,0,0-2.844,3.232q1.659,1.443,3.361,2.844A2.16,2.16,0,1,0,38.11,117.3Q36.473,116.029,34.879,114.585Z" transform="translate(36.219 131.726)" fill="#00a19b"/>
    <path id="Path_44707" data-name="Path 44707" d="M43.057,120.487q-1.788-1.12-3.533-2.305a2.154,2.154,0,1,0-2.413,3.555q1.81,1.228,3.684,2.391a2.154,2.154,0,0,0,2.262-3.662Z" transform="translate(41.593 135.886)" fill="#00a19b"/>
    <path id="Path_44708" data-name="Path 44708" d="M53.664,124.646q-2.025-.625-4.007-1.357a2.154,2.154,0,0,0-1.465,4.05q2.154.732,4.18,1.4a2.157,2.157,0,0,0,1.293-4.115Z" transform="translate(54.059 142.198)" fill="#00a19b"/>
    <path id="Path_44709" data-name="Path 44709" d="M48.223,122.884q-1.917-.883-3.813-1.831a2.154,2.154,0,1,0-1.961,3.835q1.961.991,3.964,1.917a2.155,2.155,0,0,0,1.788-3.921Z" transform="translate(47.586 139.435)" fill="#00a19b"/>
    <path id="Path_44710" data-name="Path 44710" d="M30.863,110.579a2.159,2.159,0,1,0-3.232,2.865q1.465,1.637,2.995,3.232a2.156,2.156,0,0,0,3.1-2.995Q32.263,112.152,30.863,110.579Z" transform="translate(31.273 126.813)" fill="#00a19b"/>
    <path id="Path_44711" data-name="Path 44711" d="M24.394,101.156a2.158,2.158,0,0,0-3.835,1.982q1.013,1.961,2.154,3.856a2.162,2.162,0,0,0,3.749-2.154Q25.364,103.03,24.394,101.156Z" transform="translate(23.458 115.425)" fill="#00a19b"/>
    <path id="Path_44712" data-name="Path 44712" d="M18.219,91.409a2.154,2.154,0,0,0,1.831-2.434q-.3-2.154-.5-4.18a2.165,2.165,0,1,0-4.309.431q.215,2.154.539,4.309a2.154,2.154,0,0,0,2.154,1.853Z" transform="translate(17.59 95.635)" fill="#00a19b"/>
    <path id="Path_44713" data-name="Path 44713" d="M17.154,84.129h0a2.154,2.154,0,0,0,2.154-2.154v-1.81a2.154,2.154,0,0,0-4.309,0v1.874a2.154,2.154,0,0,0,2.154,2.09Z" transform="translate(17.319 90.054)" fill="#00a19b"/>
    <path id="Path_44714" data-name="Path 44714" d="M21.5,94.519q-.56-2.025-1.034-4.093a2.156,2.156,0,0,0-4.2.969q.5,2.154,1.077,4.309A2.154,2.154,0,0,0,19.491,97.3a2.155,2.155,0,0,0,.56,0A2.154,2.154,0,0,0,21.5,94.519Z" transform="translate(18.709 102.457)" fill="#00a19b"/>
    <path id="Path_44715" data-name="Path 44715" d="M23.621,99.859q-.8-1.939-1.53-3.921a2.157,2.157,0,1,0-4.05,1.487q.754,2.154,1.594,4.093a2.159,2.159,0,1,0,3.986-1.659Z" transform="translate(20.676 109.117)" fill="#00a19b"/>
    <path id="Path_44716" data-name="Path 44716" d="M27.327,106.062a2.154,2.154,0,1,0-3.555,2.435q1.25,1.81,2.564,3.576a2.154,2.154,0,1,0,3.447-2.585Q28.533,107.807,27.327,106.062Z" transform="translate(27.01 121.355)" fill="#00a19b"/>
    <path id="Path_44717" data-name="Path 44717" d="M111.477,95.722a2.154,2.154,0,0,0-2.8,1.206q-.776,1.982-1.637,3.9a2.156,2.156,0,1,0,3.943,1.745q.883-2,1.7-4.072A2.154,2.154,0,0,0,111.477,95.722Z" transform="translate(123.355 110.324)" fill="#00a19b"/>
    <path id="Path_44718" data-name="Path 44718" d="M109.592,101.272a2.154,2.154,0,0,0-2.93.862q-1.013,1.853-2.154,3.662a2.154,2.154,0,1,0,3.684,2.154q1.142-1.874,2.154-3.813a2.154,2.154,0,0,0-.754-2.865Z" transform="translate(120.113 116.601)" fill="#00a19b"/>
    <path id="Path_44719" data-name="Path 44719" d="M112.827,89.937a2.154,2.154,0,0,0-2.628,1.551q-.517,2.154-1.12,4.072a2.157,2.157,0,1,0,4.136,1.228q.625-2.154,1.163-4.309a2.154,2.154,0,0,0-1.551-2.542Z" transform="translate(125.819 103.743)" fill="#00a19b"/>
    <path id="Path_44720" data-name="Path 44720" d="M113.154,78A2.154,2.154,0,0,0,111,80.154v4.309a2.154,2.154,0,0,0,2.154,2.154h0a2.154,2.154,0,0,0,2.154-2.154V80.154A2.154,2.154,0,0,0,113.154,78Z" transform="translate(128.141 90.042)" fill="#00a19b"/>
    <path id="Path_44721" data-name="Path 44721" d="M113.382,84.009a2.154,2.154,0,0,0-2.413,1.874q-.259,2.154-.6,4.18a2.154,2.154,0,0,0,1.767,2.478h.366a2.154,2.154,0,0,0,2.154-1.81q.366-2.154.625-4.309a2.154,2.154,0,0,0-1.9-2.413Z" transform="translate(127.375 96.959)" fill="#00a19b"/>
    <path id="Path_44722" data-name="Path 44722" d="M103.731,107.017q-1.228,1.7-2.542,3.361a2.155,2.155,0,1,0,3.382,2.671q1.357-1.724,2.65-3.512a2.154,2.154,0,1,0-3.49-2.521Z" transform="translate(116.28 122.425)" fill="#00a19b"/>
    <path id="Path_44723" data-name="Path 44723" d="M92,118.736q-1.767,1.142-3.576,2.154a2.154,2.154,0,1,0,2.154,3.706q1.9-1.12,3.749-2.305A2.154,2.154,0,0,0,92,118.672Z" transform="translate(100.611 136.667)" fill="#00a19b"/>
    <path id="Path_44724" data-name="Path 44724" d="M100.3,111.369q-1.443,1.551-2.93,3.038a2.156,2.156,0,1,0,3.038,3.059q1.573-1.551,3.059-3.145a2.165,2.165,0,1,0-3.167-2.952Z" transform="translate(111.673 127.769)" fill="#00a19b"/>
    <path id="Path_44725" data-name="Path 44725" d="M96.4,115.337q-1.616,1.357-3.3,2.65a2.154,2.154,0,1,0,2.628,3.4q1.745-1.336,3.425-2.736a2.157,2.157,0,0,0-2.758-3.318Z" transform="translate(106.394 132.569)" fill="#00a19b"/>
    <path id="Path_44726" data-name="Path 44726" d="M104.261,37.412a6.463,6.463,0,0,1-4.309,1.616A6.291,6.291,0,0,1,98.7,38.9a6.465,6.465,0,0,1-1.034-.323h-.129a6.463,6.463,0,0,1-2.154-1.4h-1.9V64.88h20.618a9.005,9.005,0,0,1,9.544,8.294V94.719a2.154,2.154,0,1,1-4.309,0V73.175a4.8,4.8,0,0,0-5.235-3.986H93.489V106.4a12.412,12.412,0,0,1-.194,2.154v.215a12.258,12.258,0,0,1-.539,1.917v.215a12.3,12.3,0,0,1-.862,1.788v.129a12.34,12.34,0,0,1-1.185,1.659H121.5a2.154,2.154,0,0,1-2.154-2.154v-8.661a2.154,2.154,0,0,1,4.309,0v8.618a2.154,2.154,0,0,1-2.154,2.154h28.7a7.971,7.971,0,0,0,7.928-8.036V37.11H104.5Zm34.47,40.4a2.154,2.154,0,1,1-2.154,2.154A2.154,2.154,0,0,1,138.732,77.807Zm-2.154,10.772a2.154,2.154,0,1,1,4.309,0v12.926a2.154,2.154,0,1,1-4.309,0Z" transform="translate(104.719 42.839)" fill="#00a19b"/>
    <path id="Path_44727" data-name="Path 44727" d="M40.471,112.277v-8.618a2.154,2.154,0,1,1,4.309,0v8.618a2.154,2.154,0,0,1-2.154,2.154H73.584a12.345,12.345,0,0,1-2.952-8.036V69.189H50.015a4.8,4.8,0,0,0-5.235,3.986V94.719a2.154,2.154,0,1,1-4.309,0V73.175a9.005,9.005,0,0,1,9.544-8.294H70.632V37.11H68.305a6.463,6.463,0,0,1-8.273,0H6V106.4a7.971,7.971,0,0,0,7.928,8.036h28.7A2.154,2.154,0,0,1,40.471,112.277ZM27.544,101.505a2.154,2.154,0,1,1-4.309,0V88.579a2.154,2.154,0,1,1,4.309,0ZM25.39,82.115a2.154,2.154,0,1,1,2.154-2.154A2.154,2.154,0,0,1,25.39,82.115Z" transform="translate(6.929 42.839)" fill="#00a19b"/>
  </g>
</svg>
