<svg xmlns="http://www.w3.org/2000/svg" width="254.415" height="192.536" viewBox="0 0 254.415 192.536">
  <g id="noun_payment_4313854" transform="translate(38.432 -40.95) rotate(13)">
    <path id="Path_44728" data-name="Path 44728" d="M114.713,29.819A44.287,44.287,0,0,0,35.614,66a42.324,42.324,0,0,0,2.328,6.983,44.288,44.288,0,1,0,76.771-43.168ZM83.056,81.07a.254.254,0,0,0,0,.212v3.724a4.655,4.655,0,0,1-9.311,0V81.832h-.254a26.027,26.027,0,0,1-8.464-2.412,4.571,4.571,0,0,1-2.539-5.713l.212-.635a4.655,4.655,0,0,1,2.624-2.709,4.528,4.528,0,0,1,3.724,0,18.452,18.452,0,0,0,7.914,1.82c4.232,0,7.068-2.2,7.068-5.417,0-2.2-.889-4.571-7.406-7.195s-14.135-7.025-14.135-15.49A14.6,14.6,0,0,1,74.127,29.819h0V26.307a4.613,4.613,0,1,1,9.226,0v2.92a23.742,23.742,0,0,1,6.517,1.651,4.613,4.613,0,0,1,2.5,5.883l-.254.592a4.528,4.528,0,0,1-2.5,2.582,4.655,4.655,0,0,1-3.64,0,16.675,16.675,0,0,0-6.56-1.4c-4.486,0-6.052,2.328-6.052,4.486s1.185,3.894,8.464,6.814c6.052,2.709,13.289,6.941,13.289,16.294A15.447,15.447,0,0,1,83.056,81.07Z" transform="translate(99.005 0)" fill="#00a19b"/>
    <path id="Path_44729" data-name="Path 44729" d="M211.525,66.968a11.131,11.131,0,0,0-4.232-.3,30.556,30.556,0,0,0-5.671,1.354c-16.59,5.163-33.011,11.257-49.981,15.109A129.122,129.122,0,0,1,99.8,85.97a16.929,16.929,0,0,1-8.8-3.555,6.729,6.729,0,0,1-1.481-8.464c2.031-2.709,6.052-2.624,9.4-2.37a343.389,343.389,0,0,0,38.639,0h2.2a31.233,31.233,0,0,0,12.7-2.37,10.707,10.707,0,0,0,6.39-10.538c-1.016-6.264-8.464-8.76-14.855-9.692l-7.237-.931c-12.7-1.481-25.858-2.158-38.6-4.7-14.135-2.836-27.763-7.914-41.856-10.834A84.642,84.642,0,0,0,29.5,30.868,59.249,59.249,0,0,0,16.34,34.085a7.406,7.406,0,0,0-2.5,1.439c-1.9,1.735-1.735,4.232-1.777,7.787q-.212,28.313-.423,56.583a16.42,16.42,0,0,0,1.947,9.014l.466.635a16.929,16.929,0,0,0,9.4,4.909,211.606,211.606,0,0,0,96.577,2.539A405.859,405.859,0,0,0,186.81,94.265l22.43-9.057a17.564,17.564,0,0,0,6.137-3.513,9.311,9.311,0,0,0-3.851-14.728ZM140.257,55.415a2.455,2.455,0,0,1,2.666-2.243h3.809a6.6,6.6,0,0,1,6.6,6.644,6.052,6.052,0,0,1-2.116,4.232,6.941,6.941,0,0,1-4.782,1.608H142.2a2.582,2.582,0,0,1-2.158-1.312,2.243,2.243,0,0,1-.254-1.185l.466-7.7Z" transform="translate(25.469 62.137)" fill="#00a19b"/>
    <path id="Path_44730" data-name="Path 44730" d="M30.594,49.82a24.842,24.842,0,0,1,.635-6.644,12.4,12.4,0,0,1,1.1-2.709,11.554,11.554,0,0,1,2.328-2.92,14.558,14.558,0,0,1,4.825-2.836V33.484a5.5,5.5,0,0,0-5.629-5.332H9.349A5.5,5.5,0,0,0,3.72,33.484v93.488A5.5,5.5,0,0,0,9.349,132.3h24.5a5.5,5.5,0,0,0,5.629-5.332v-.931a17.225,17.225,0,0,1-5.629-4.613h0l-.762-1.058A22.9,22.9,0,0,1,30.3,107.123ZM17.009,47.534A4.232,4.232,0,1,1,21.241,43.3a4.232,4.232,0,0,1-4.232,4.232Z" transform="translate(0 54.654)" fill="#00a19b"/>
  </g>
</svg>
