<svg xmlns="http://www.w3.org/2000/svg" width="225.306" height="218.87" viewBox="0 0 225.306 218.87">
  <g id="noun_fix_829243" transform="translate(-1 -2.43)">
    <path id="Path_44731" data-name="Path 44731" d="M222.491,134.787l-52.419,60.12a36.785,36.785,0,0,1-27.727,12.6H63.511L49.717,221.3,1,173.595l34.969-34.762a53.338,53.338,0,0,1,55.177-12.484l7.679,2.69h47.338A14.9,14.9,0,0,1,161.037,144.4a15.312,15.312,0,0,1-15.519,14.438H117.171a5.794,5.794,0,0,0,0,11.5h28.37a26.991,26.991,0,0,0,27.083-25.611v-.368l26.255-29.52a15.886,15.886,0,0,1,21.818-2.138,15.473,15.473,0,0,1,1.793,22.094ZM161.014,51.009h0a5.311,5.311,0,0,1,4.483,2.437l4.092,6.322A2.3,2.3,0,0,0,171.5,60.8H184.3a8.323,8.323,0,0,0,8.346-8.323V10.8a8.346,8.346,0,0,0-8.323-8.346h-12.76a2.3,2.3,0,0,0-1.908,1.035L165.566,9.81a5.38,5.38,0,0,1-4.6,2.437h0a5.15,5.15,0,0,1-4.345-2.3l-4.115-6.46a2.308,2.308,0,0,0-1.931-1.058H117.815a53.867,53.867,0,0,0-53.8,53.729A3.633,3.633,0,0,0,67.1,59.723L80,61.631a3.61,3.61,0,0,0,3.931-2.437,20.691,20.691,0,0,1,19.726-14.07h0a20.691,20.691,0,0,1,18.967,12.3l-1.793,58.741h35.015l-1.724-58.971,2.437-3.747a5.311,5.311,0,0,1,4.46-2.437Z" transform="translate(0 0)" fill="#00a19b"/>
  </g>
</svg>
