<svg xmlns="http://www.w3.org/2000/svg" width="22.957" height="21.55" viewBox="0 0 22.957 21.55">
  <g id="noun_linked_4211117" transform="translate(-2.141 -7.758)">
    <path id="Path_44651" data-name="Path 44651" d="M19.064,35.069a1.392,1.392,0,0,0-.11-.4c-.009-.019-.02-.037-.03-.056a1.385,1.385,0,0,0-.255-.362,5.166,5.166,0,0,0-7.3,0L6.508,39.116a5.159,5.159,0,0,0,7.3,7.3l2.863-2.863a7.184,7.184,0,0,1-2.83-1.15l-2.023,2.023a2.4,2.4,0,0,1-3.316,0,2.348,2.348,0,0,1,0-3.315l2.66-2.661,0,0,2.2-2.2A2.343,2.343,0,0,1,14.58,35.6h0a2.346,2.346,0,0,1,2.1.643,1.4,1.4,0,0,0,2.36-.669c0-.007,0-.013.006-.02a1.411,1.411,0,0,0,.026-.423C19.068,35.11,19.066,35.089,19.064,35.069Z" transform="translate(-2.859 -18.613)"/>
    <path id="Path_44652" data-name="Path 44652" d="M52.362,9.269a5.158,5.158,0,0,0-7.3,0L42.2,12.136a7.23,7.23,0,0,1,2.832,1.149l2.025-2.025a2.4,2.4,0,0,1,3.315,0,2.343,2.343,0,0,1,0,3.315l-.892.893,0,0-3.968,3.967a2.4,2.4,0,0,1-3.315,0,1.408,1.408,0,0,0-1.99,1.991,5.158,5.158,0,0,0,7.3,0l3.968-3.968,0,0,.892-.893a5.159,5.159,0,0,0,0-7.3Z" transform="translate(-28.775)"/>
  </g>
</svg>
