<svg xmlns="http://www.w3.org/2000/svg" width="28" height="26.968" viewBox="0 0 28 26.968">
  <g id="noun_chat_4291983" transform="translate(-2 -2.516)">
    <g id="Group_13353" data-name="Group 13353" transform="translate(0 -0.017)">
      <path id="Path_44655" data-name="Path 44655" d="M15.953,2.533C8.261,2.569,2,8.089,2,15a11.726,11.726,0,0,0,3.453,8.059L4.035,28.236a1,1,0,0,0,1.451,1.139l5.162-2.869A15.437,15.437,0,0,0,16,27.5a15.084,15.084,0,0,0,8.316-2.441,1,1,0,0,0-1.1-1.67A13.09,13.09,0,0,1,16,25.5a13.44,13.44,0,0,1-5.094-1,1,1,0,0,0-.867.053L6.592,26.473,7.5,23.15a1,1,0,0,0-.281-.992A9.809,9.809,0,0,1,4,15C4,9.3,9.213,4.564,15.963,4.533S28,9.26,28,15a9.513,9.513,0,0,1-1.967,5.76,1,1,0,1,0,1.6,1.2A11.55,11.55,0,0,0,30,15C30,8.038,23.652,2.5,15.953,2.533Z" fill="#00a19b"/>
      <path id="Path_44656" data-name="Path 44656" d="M11,12.074a1,1,0,0,0,0,2H21a1,1,0,0,0,0-2Z" fill="#00a19b"/>
      <path id="Path_44657" data-name="Path 44657" d="M11,17a1,1,0,0,0,0,2H21a1,1,0,0,0,0-2Z" fill="#00a19b"/>
    </g>
  </g>
</svg>
