<svg xmlns="http://www.w3.org/2000/svg" width="27.996" height="30.751" viewBox="0 0 27.996 30.751">
  <g id="noun_messenger_3202205" transform="translate(-2.5 -49.481)">
    <path id="Path_44658" data-name="Path 44658" d="M16.5,4.4a13.755,13.755,0,0,0-14,13.468,13.1,13.1,0,0,0,4.3,9.687,20.916,20.916,0,0,1-2.947,6.008.969.969,0,0,0,.678,1.586,12.73,12.73,0,0,0,8.634-4.219,15.339,15.339,0,0,0,3.33.405,13.755,13.755,0,0,0,14-13.468A13.755,13.755,0,0,0,16.5,4.4Zm7.338,12.32L19.651,21.48a1.427,1.427,0,0,1-2.181,0l-3.065-3.544L11.311,21.48a1.4,1.4,0,0,1-2.151,0,1.938,1.938,0,0,1,0-2.464l4.185-4.793a1.427,1.427,0,0,1,2.181,0l3.094,3.544,3.094-3.544a1.4,1.4,0,0,1,2.151,0A2.025,2.025,0,0,1,23.836,16.72Z" transform="translate(0 45.081)" fill="#007fff"/>
  </g>
</svg>
