<svg xmlns="http://www.w3.org/2000/svg" width="28" height="22" viewBox="0 0 28 22">
  <g id="noun_Email_4292826" transform="translate(-2 -5)">
    <g id="Group_13352" data-name="Group 13352" transform="translate(0 40)">
      <path id="Path_44654" data-name="Path 44654" d="M5-35a2.965,2.965,0,0,0-1.732.566l11.606,10.68a1.861,1.861,0,0,0,2.254,0L28.814-34.367A2.964,2.964,0,0,0,27-35ZM2.115-32.773A2.929,2.929,0,0,0,2-32v16a2.97,2.97,0,0,0,.736,1.939L10.68-24.893Zm27.8.105-8.713,7.912,8.031,10.729A2.973,2.973,0,0,0,30-16V-32a2.857,2.857,0,0,0-.082-.668ZM12.162-23.529,4.479-13.053A2.953,2.953,0,0,0,5-13H27a2.926,2.926,0,0,0,.469-.047L19.717-23.4l-1.266,1.15a3.707,3.707,0,0,1-4.9,0c-.461-.423-.925-.85-1.387-1.275Z" fill="#db1414"/>
    </g>
  </g>
</svg>
