<svg xmlns="http://www.w3.org/2000/svg" width="16.191" height="16.191" viewBox="0 0 16.191 16.191">
  <g id="noun_Warning_855733" transform="translate(-229.066 114)">
    <g id="Group_13386" data-name="Group 13386" transform="translate(229.066 -114)">
      <path id="Path_44667" data-name="Path 44667" d="M13.1,957.362a8.1,8.1,0,1,0,8.1,8.1,8.1,8.1,0,0,0-8.1-8.1Zm0,1.079a7.016,7.016,0,1,1-7.016,7.016A7.008,7.008,0,0,1,13.1,958.441Zm0,1.079a1.079,1.079,0,0,0-1.079,1.079l.18,7.016a.9.9,0,0,0,1.8,0l.18-7.016A1.079,1.079,0,0,0,13.1,959.521Zm0,9.714a1.079,1.079,0,1,0,1.079,1.079A1.079,1.079,0,0,0,13.1,969.235Z" transform="translate(-5 -957.362)"/>
    </g>
  </g>
</svg>
