<svg id="Component_84_1" data-name="Component 84 – 1" xmlns="http://www.w3.org/2000/svg" width="135" height="135" viewBox="0 0 135 135">
  <circle id="Ellipse_38" data-name="Ellipse 38" cx="67.5" cy="67.5" r="67.5" fill="#ffb600"/>
  <g id="sale" transform="translate(20.5 15.709)">
    <path id="Path_44561" data-name="Path 44561" d="M8,32.576V48.958l12.286-6.7L53.05,24.386,85.813,42.262l12.286,6.7V32.576L53.05,8Zm0,0" transform="translate(-5.952 -5.955)" fill="none"/>
    <g id="Group_13067" data-name="Group 13067" transform="translate(0 0.001)">
      <path id="Path_44562" data-name="Path 44562" d="M93.128,24.823,48.078.251a2.051,2.051,0,0,0-1.962,0L1.067,24.823A2.05,2.05,0,0,0,0,26.622V43a2.047,2.047,0,0,0,3.027,1.8l9.26-5.05V90.1H2.048a2.048,2.048,0,1,0,0,4.1h90.1a2.048,2.048,0,0,0,0-4.1H81.908V39.755L91.166,44.8A2.047,2.047,0,0,0,94.195,43V26.622a2.048,2.048,0,0,0-1.067-1.8ZM77.813,90.1H16.382V37.517L47.1,20.763,77.813,37.521ZM90.1,39.555l-9.258-5.046L48.078,16.632a2.051,2.051,0,0,0-1.962,0L4.1,39.555V27.838l43-23.457,43,23.457Zm0,0" transform="translate(0 -0.001)" fill="#232323"/>
    </g>
  </g>
  <g id="Iconly_Bold_Heart" data-name="Iconly/Bold/Heart" transform="translate(50 62.808)">
    <g id="Heart">
      <path id="Heart-2" data-name="Heart" d="M17.557,33.25h0l-.453-.28A66.786,66.786,0,0,1,5.958,24.288a22.738,22.738,0,0,1-5.27-8.4,13.552,13.552,0,0,1,.25-9.231A10.647,10.647,0,0,1,7.567.471,7.883,7.883,0,0,1,9.123.106h.209A9.982,9.982,0,0,1,10.8,0H11a10.965,10.965,0,0,1,3.2.578h.1a.579.579,0,0,1,.158.1,5.907,5.907,0,0,1,1.1.457l.665.3a4.6,4.6,0,0,1,.5.332c.1.073.186.136.254.177l.072.042a4.26,4.26,0,0,1,.453.289A10.892,10.892,0,0,1,24.166,0h.077A10.2,10.2,0,0,1,27.5.509a10.534,10.534,0,0,1,6.572,6.155,13.851,13.851,0,0,1,.27,9.226,22.368,22.368,0,0,1-5.265,8.417A67.552,67.552,0,0,1,18,32.987l-.437.262ZM26.146,5.456a1.416,1.416,0,0,0-1.324.95,1.434,1.434,0,0,0,.874,1.8,2.933,2.933,0,0,1,1.873,2.748v.054a1.505,1.505,0,0,0,.332,1.085,1.471,1.471,0,0,0,1,.507,1.44,1.44,0,0,0,1.383-1.331v-.208A5.776,5.776,0,0,0,26.589,5.53,1.365,1.365,0,0,0,26.146,5.456Z" transform="translate(0 0)" fill="#fff"/>
    </g>
  </g>
</svg>
