<svg id="Component_87_1" data-name="Component 87 – 1" xmlns="http://www.w3.org/2000/svg" width="135" height="135" viewBox="0 0 135 135">
  <circle id="Ellipse_66" data-name="Ellipse 66" cx="67.5" cy="67.5" r="67.5" fill="#ffb600"/>
  <g id="sale" transform="translate(20.5 15.709)">
    <path id="Path_44561" data-name="Path 44561" d="M8,32.576V48.958l12.286-6.7L53.05,24.386,85.813,42.262l12.286,6.7V32.576L53.05,8Zm0,0" transform="translate(-5.952 -5.955)" fill="none"/>
    <g id="Group_13067" data-name="Group 13067" transform="translate(0 0.001)">
      <path id="Path_44562" data-name="Path 44562" d="M93.128,24.823,48.078.251a2.051,2.051,0,0,0-1.962,0L1.067,24.823A2.05,2.05,0,0,0,0,26.622V43a2.047,2.047,0,0,0,3.027,1.8l9.26-5.05V90.1H2.048a2.048,2.048,0,1,0,0,4.1h90.1a2.048,2.048,0,0,0,0-4.1H81.908V39.755L91.166,44.8A2.047,2.047,0,0,0,94.195,43V26.622a2.048,2.048,0,0,0-1.067-1.8ZM77.813,90.1H16.382V37.517L47.1,20.763,77.813,37.521ZM90.1,39.555l-9.258-5.046L48.078,16.632a2.051,2.051,0,0,0-1.962,0L4.1,39.555V27.838l43-23.457,43,23.457Zm0,0" transform="translate(0 -0.001)" fill="#232323"/>
      <path id="Path_44563" data-name="Path 44563" d="M140.286,146.052v6.143H130.048A2.048,2.048,0,0,0,128,154.243v12.286a2.049,2.049,0,0,0,2.048,2.048h10.239v8.191H130.048a2.048,2.048,0,0,0,0,4.1h10.239v6.143a2.048,2.048,0,0,0,4.1,0v-6.143H154.62a2.048,2.048,0,0,0,2.048-2.048V166.529a2.048,2.048,0,0,0-2.048-2.048H144.382V156.29H154.62a2.048,2.048,0,0,0,0-4.1H144.382v-6.143a2.048,2.048,0,1,0-4.1,0Zm0,18.429H132.1V156.29h8.191Zm4.1,4.1h8.191v8.191h-8.191Zm0,0" transform="translate(-95.237 -107.144)" fill="#232323"/>
    </g>
  </g>
</svg>
