<svg id="Component_88_1" data-name="Component 88 – 1" xmlns="http://www.w3.org/2000/svg" width="135.099" height="135" viewBox="0 0 135.099 135">
  <circle id="Ellipse_67" data-name="Ellipse 67" cx="67.5" cy="67.5" r="67.5" fill="#ffb600"/>
  <g id="house" transform="translate(16.898 -12.799)">
    <g id="Group_13063" data-name="Group 13063" transform="translate(0 21.461)">
      <path id="Path_44559" data-name="Path 44559" d="M116.943,89.9a7.306,7.306,0,0,0-10.09-1.951l-15.084,10.1-.044-31.422,5.241,4.909a5.966,5.966,0,0,0,4.093,1.618h.009a6.012,6.012,0,0,0,4.363-1.894,5.989,5.989,0,0,0-.276-8.465l-9.935-9.307a1.687,1.687,0,0,0-2.307,2.463l9.935,9.307a2.614,2.614,0,0,1-1.785,4.522h0a2.6,2.6,0,0,1-1.786-.706h0L59.821,32.116a1.687,1.687,0,0,0-2.31,0L18.164,69.186a2.614,2.614,0,0,1-3.585-3.806L56.867,25.543a2.618,2.618,0,0,1,3.58,0L85.188,48.715a1.687,1.687,0,0,0,2.307-2.463L62.754,23.076a6,6,0,0,0-8.2.011L41.016,35.84l0-2.275a2.684,2.684,0,0,0-2.684-2.68h0L28.64,30.9a2.684,2.684,0,0,0-2.68,2.688L25.987,50,12.265,62.924a5.989,5.989,0,0,0,3.928,10.345l.184,0a5.945,5.945,0,0,0,4.1-1.63l5.229-4.926.021,14.842a35.553,35.553,0,0,0-5.123-.376H17.718V80.172a6.166,6.166,0,0,0-6.159-6.159h-5.4A6.166,6.166,0,0,0,0,80.171v26.438a1.687,1.687,0,1,0,3.374,0V80.171a2.788,2.788,0,0,1,2.785-2.785h5.4a2.788,2.788,0,0,1,2.785,2.785v39.953a2.788,2.788,0,0,1-2.785,2.785h-5.4a2.788,2.788,0,0,1-2.785-2.785v-2.952a1.687,1.687,0,1,0-3.374,0v2.952a6.166,6.166,0,0,0,6.159,6.159h5.4a6.166,6.166,0,0,0,6.159-6.159V119.9l24.708,9.356q.069.026.139.046a11.784,11.784,0,0,0,3.208.455,10.923,10.923,0,0,0,1.707-.134l36.31-5.234.025,0a17.775,17.775,0,0,0,8.422-3.774c.021-.017.042-.035.062-.053l23.458-21.1A7.307,7.307,0,0,0,116.943,89.9ZM37.639,34.26l.008,4.753-8.291,7.81-.021-12.552Zm21.032,1.4,29.674,27.8L88.4,100.3l-4.777,3.2-5.058-.284-.134-1.344a10.684,10.684,0,0,0-8.583-9.447l-.03-21.919a3.057,3.057,0,0,0-3.054-3.049h0l-16.08.023a3.054,3.054,0,0,0-3.049,3.058l.027,19.111a32.064,32.064,0,0,1-9.07-3.594q-.532-.311-1.074-.6c-.141-.076-.284-.147-.426-.221-.22-.115-.439-.23-.661-.34-.177-.088-.356-.171-.534-.256s-.378-.181-.568-.267-.389-.172-.585-.256c-.178-.077-.357-.155-.537-.229-.2-.083-.4-.163-.605-.242-.179-.07-.359-.14-.539-.207q-.3-.112-.6-.218-.284-.1-.569-.2t-.581-.189c-.207-.065-.415-.128-.623-.189-.179-.053-.358-.105-.537-.155-.235-.065-.471-.127-.707-.187-.111-.028-.22-.06-.332-.088l-.026-18.672ZM66.47,92,52.359,90.38l-1.33-.153L51,70.855l15.439-.022Zm47.038,4.936L90.073,118.018a14.4,14.4,0,0,1-6.778,3.029L47,126.279l-.023,0-.025,0a8.045,8.045,0,0,1-3.4-.217l-25.831-9.782V84.557H20.6a32.218,32.218,0,0,1,7.275.835l.265.063c.292.07.583.143.873.221l.076.021q.436.119.869.251l.155.047q.461.142.917.3l.094.033q.95.328,1.879.715l.1.042q.463.195.92.4l.024.012q.442.2.878.42l.1.051q.426.213.846.44l.158.086c.283.154.564.311.842.474A35.441,35.441,0,0,0,49.871,93.49l.043.006,18.9,2.176q.157.022.312.052a7.317,7.317,0,0,1,5.714,5.257,7.415,7.415,0,0,1,.228,1.228l.075.755-35.428-3.1a1.687,1.687,0,1,0-.295,3.361L76.878,106.5H76.9l.026,0,7.064.4.094,0c.033,0,.066-.005.1-.007s.075,0,.113-.008.1-.017.149-.028.071-.014.106-.024a1.639,1.639,0,0,0,.158-.057c.028-.011.057-.02.085-.033a1.666,1.666,0,0,0,.228-.127l6-4.013h0l17.707-11.851a3.916,3.916,0,0,1,4.776,6.185Z" transform="translate(0 -21.461)"/>
    </g>
  </g>
</svg>
