<svg id="Component_89_1" data-name="Component 89 – 1" xmlns="http://www.w3.org/2000/svg" width="135" height="135" viewBox="0 0 135 135">
  <circle id="Ellipse_68" data-name="Ellipse 68" cx="67.5" cy="67.5" r="67.5" fill="#ffb600"/>
  <g id="sale_1_" data-name="sale (1)" transform="translate(22 19.961)">
    <path id="Path_44555" data-name="Path 44555" d="M90.006,23.991,46.466.242a1.982,1.982,0,0,0-1.9,0L1.031,23.991A1.982,1.982,0,0,0,0,25.73V41.562A1.98,1.98,0,0,0,2.927,43.3l8.947-4.881V87.08h-9.9a1.979,1.979,0,0,0,0,3.958H89.058a1.979,1.979,0,0,0,0-3.958h-9.9V38.419L88.11,43.3a1.98,1.98,0,0,0,2.927-1.737V25.73a1.98,1.98,0,0,0-1.031-1.738ZM75.2,87.08H15.832V36.26L45.518,20.067,75.2,36.26ZM87.079,38.227,46.466,16.075a1.988,1.988,0,0,0-1.9,0L3.958,38.227V26.9l41.56-22.67L87.079,26.9Zm0,0" transform="translate(0)"/>
    <path id="Path_44556" data-name="Path 44556" d="M117.937,187.878A5.937,5.937,0,1,0,112,181.941,5.944,5.944,0,0,0,117.937,187.878Zm0-7.916a1.979,1.979,0,1,1-1.979,1.979A1.982,1.982,0,0,1,117.937,179.962Zm0,0" transform="translate(-84.293 -132.463)"/>
    <path id="Path_44557" data-name="Path 44557" d="M213.937,256a5.937,5.937,0,1,0,5.937,5.937A5.944,5.944,0,0,0,213.937,256Zm0,7.916a1.979,1.979,0,1,1,1.979-1.979A1.983,1.983,0,0,1,213.937,263.92Zm0,0" transform="translate(-156.544 -192.672)"/>
    <path id="Path_44558" data-name="Path 44558" d="M112.493,206.987a1.976,1.976,0,0,0,2.791.185l31.665-27.707a1.979,1.979,0,0,0-2.606-2.979l-31.665,27.707a1.982,1.982,0,0,0-.185,2.795Zm0,0" transform="translate(-84.295 -132.457)"/>
  </g>
</svg>
