<svg id="progree" xmlns="http://www.w3.org/2000/svg" width="108" height="108" viewBox="0 0 108 108">
  <text id="_1_3" data-name="1/3" transform="translate(35 65)" fill="#232323" font-size="25" font-family="Roboto-Medium, Roboto" font-weight="500"><tspan x="0" y="0">1/3</tspan></text>
  <g id="Group_13415" data-name="Group 13415" transform="translate(-333 -897)">
    <g id="Path_44673" data-name="Path 44673" transform="translate(333 897)" fill="none">
      <path d="M54,0A54,54,0,1,1,0,54,54,54,0,0,1,54,0Z" stroke="none"/>
      <path d="M 54.00000381469727 12.00000762939453 C 30.84113311767578 12.00000762939453 12.00000762939453 30.84113311767578 12.00000762939453 54.00000381469727 C 12.00000762939453 77.15887451171875 30.84113311767578 96 54.00000381469727 96 C 77.15887451171875 96 96 77.15887451171875 96 54.00000381469727 C 96 30.84113311767578 77.15887451171875 12.00000762939453 54.00000381469727 12.00000762939453 M 54.00000381469727 7.62939453125e-06 C 83.82337188720703 7.62939453125e-06 108 24.1766357421875 108 54.00000381469727 C 108 83.82337188720703 83.82337188720703 108 54.00000381469727 108 C 24.1766357421875 108 7.62939453125e-06 83.82337188720703 7.62939453125e-06 54.00000381469727 C 7.62939453125e-06 24.1766357421875 24.1766357421875 7.62939453125e-06 54.00000381469727 7.62939453125e-06 Z" stroke="none" fill="#cddddb"/>
    </g>
    <g id="Path_44674" data-name="Path 44674" transform="translate(333 897)" fill="none" stroke-dasharray="100 500">
      <path d="M54,0A54,54,0,1,1,0,54,54,54,0,0,1,54,0Z" stroke="none"/>
      <path d="M 54.00000381469727 7.62939453125e-06 C 83.82337188720703 7.62939453125e-06 108 24.1766357421875 108 54.00000381469727 C 108 54.00888061523438 108 54.01808929443359 108 54.02696228027344 C 107.9999923706055 54.02878570556641 107.9999923706055 54.0333137512207 107.9999923706055 54.03513336181641 C 107.9999847412109 54.04211044311523 107.9999847412109 54.04875183105469 107.9999771118164 54.05572509765625 C 107.9999694824219 54.05936431884766 107.9999694824219 54.05935668945312 107.9999694824219 54.06299591064453 C 107.9999542236328 54.07218933105469 107.9999465942383 54.08074569702148 107.9999313354492 54.08993911743164 C 107.9999237060547 54.09175872802734 107.9999237060547 54.09329223632812 107.9999237060547 54.09511184692383 C 107.9999084472656 54.10240173339844 107.9998931884766 54.10990905761719 107.9998779296875 54.1171989440918 C 107.999870300293 54.1208381652832 107.999870300293 54.12172698974609 107.9998626708984 54.1253662109375 C 107.9998397827148 54.13391876220703 107.9998168945312 54.14251708984375 107.9997940063477 54.15107345581055 C 107.9997940063477 54.15107345581055 107.9997940063477 54.1523323059082 107.9997940063477 54.1523323059082 C 107.9997711181641 54.16152191162109 107.9997406005859 54.17036437988281 107.9997100830078 54.17955017089844 C 107.9997024536133 54.18136978149414 107.9996871948242 54.1854133605957 107.9996871948242 54.18723297119141 C 107.9996643066406 54.1942024230957 107.9996337890625 54.20150375366211 107.9996109008789 54.20847320556641 C 107.9996032714844 54.21028900146484 107.9995880126953 54.21317291259766 107.9995803833008 54.21499252319336 C 107.9995498657227 54.22385787963867 107.99951171875 54.2330322265625 107.9994735717773 54.24190139770508 C 107.9994659423828 54.24372100830078 107.9994583129883 54.2458610534668 107.9994430541992 54.24767684936523 C 107.9994125366211 54.25496292114258 107.9993743896484 54.26269912719727 107.9993438720703 54.26998138427734 C 107.9993209838867 54.27362060546875 107.9993286132812 54.27342987060547 107.9993057250977 54.27706909179688 C 107.999267578125 54.28561782836914 107.9992218017578 54.29384994506836 107.9991760253906 54.30239868164062 C 107.9991607666016 54.30421447753906 107.9991760253906 54.30276107788086 107.9991607666016 54.3045768737793 C 107.9991073608398 54.3140754699707 107.9990615844727 54.32277679443359 107.9990005493164 54.332275390625 C 107.9989929199219 54.33409118652344 107.9989776611328 54.33646011352539 107.9989624023438 54.33827972412109 C 107.9989166259766 54.34587478637695 107.9988708496094 54.35336303710938 107.9988250732422 54.3609619140625 C 107.9988098144531 54.36277770996094 107.9987945556641 54.36524963378906 107.998779296875 54.3670654296875 C 107.9987182617188 54.37624740600586 107.9986572265625 54.38547515869141 107.9985885620117 54.3946533203125 C 107.9985809326172 54.39646911621094 107.9985809326172 54.39599990844727 107.9985656738281 54.3978157043457 C 107.9985122680664 54.40573120117188 107.9984512329102 54.41396713256836 107.9983901977539 54.42187881469727 C 107.9983596801758 54.42551422119141 107.9983596801758 54.42582321166992 107.9983291625977 54.42945861816406 C 107.9982681274414 54.43737030029297 107.9982070922852 54.44499206542969 107.9981460571289 54.45290374755859 C 107.9981307983398 54.45471954345703 107.9981231689453 54.4551887512207 107.9981079101562 54.45700454711914 C 107.9980392456055 54.46586227416992 107.9979629516602 54.47475051879883 107.9978790283203 54.48360824584961 C 107.9978637695312 54.48542404174805 107.9978256225586 54.48990249633789 107.9978103637695 54.49171829223633 C 107.9977493286133 54.49868011474609 107.9976806640625 54.50571060180664 107.9976196289062 54.51267242431641 C 107.9976043701172 54.51448822021484 107.9975738525391 54.51725006103516 107.99755859375 54.51906585693359 C 107.9974746704102 54.52824020385742 107.9973907470703 54.53722763061523 107.9972991943359 54.5463981628418 C 107.9972763061523 54.54821395874023 107.9972763061523 54.54844284057617 107.9972610473633 54.55025863647461 C 107.9971771240234 54.5584831237793 107.9970932006836 54.56614303588867 107.9970092773438 54.57436370849609 C 107.9969711303711 54.57799530029297 107.9969787597656 54.57734680175781 107.996940612793 54.58097839355469 C 107.9968566894531 54.58888626098633 107.9967727661133 54.59692764282227 107.9966888427734 54.60483169555664 C 107.9966659545898 54.60664749145508 107.9966583251953 54.60708618164062 107.9966430664062 54.60890197753906 C 107.9965362548828 54.61807250976562 107.9964370727539 54.62739181518555 107.9963302612305 54.63655853271484 C 107.9963073730469 54.63837432861328 107.9962921142578 54.63990020751953 107.9962692260742 54.64171600341797 C 107.9961776733398 54.6493034362793 107.9960861206055 54.65735244750977 107.9959945678711 54.66493988037109 C 107.9959716796875 54.66675186157227 107.9959411621094 54.66926956176758 107.9959182739258 54.67108535766602 C 107.9956970214844 54.68910598754883 107.9954605102539 54.7078742980957 107.9952239990234 54.72588729858398 C 107.9952011108398 54.72770309448242 107.9951477050781 54.73139190673828 107.9951248168945 54.73320770263672 C 107.9950180053711 54.74142456054688 107.9949111938477 54.74948883056641 107.9947967529297 54.75770568847656 C 107.9947967529297 54.75770568847656 107.994758605957 54.76031112670898 107.994758605957 54.76031112670898 C 107.9946365356445 54.76947402954102 107.9944915771484 54.77940368652344 107.9943618774414 54.78856658935547 C 107.9943389892578 54.79037857055664 107.9943237304688 54.79144668579102 107.9942932128906 54.79325866699219 C 107.9941787719727 54.80147552490234 107.9940719604492 54.80879592895508 107.9939498901367 54.81700897216797 C 107.9939193725586 54.81882095336914 107.9938888549805 54.8209114074707 107.9938659667969 54.82272338867188 C 107.9937286376953 54.83188629150391 107.9935836791992 54.84140014648438 107.9934387207031 54.85055923461914 C 107.9934387207031 54.85055923461914 107.9934310913086 54.85111618041992 107.9934310913086 54.85111618041992 C 107.993293762207 54.86027908325195 107.9931488037109 54.86924743652344 107.9930038452148 54.8784065246582 C 107.9929733276367 54.88022232055664 107.9929351806641 54.88260650634766 107.9929046630859 54.88442230224609 C 107.9927825927734 54.89200210571289 107.9926605224609 54.89970397949219 107.9925308227539 54.90728378295898 C 107.9924774169922 54.91090774536133 107.9925003051758 54.90929794311523 107.9924392700195 54.91292572021484 C 107.9922943115234 54.92176818847656 107.9921340942383 54.93131256103516 107.9919815063477 54.94015121459961 C 107.9919815063477 54.94015121459961 107.9918899536133 54.94545745849609 107.9918899536133 54.94545745849609 C 107.9917678833008 54.95271682739258 107.9916381835938 54.9599723815918 107.9915161132812 54.96723556518555 C 107.9914474487305 54.97085952758789 107.9914321899414 54.97204971313477 107.9913635253906 54.97567749023438 C 107.9912109375 54.98451614379883 107.9910583496094 54.99303817749023 107.9908981323242 55.00187683105469 C 107.9908981323242 55.00187683105469 107.9908905029297 55.00227737426758 107.9908905029297 55.00227737426758 C 107.99072265625 55.01143264770508 107.9905548095703 55.0206298828125 107.9903793334961 55.02978134155273 C 107.990348815918 55.03159332275391 107.9902954101562 55.03448486328125 107.9902572631836 55.03629684448242 C 107.9901123046875 55.044189453125 107.9899673461914 55.05175399780273 107.9898147583008 55.05964279174805 C 107.9897766113281 55.06145477294922 107.9897613525391 55.06246185302734 107.9897232055664 55.06427383422852 C 107.9895477294922 55.07342910766602 107.9893646240234 55.08275604248047 107.9891815185547 55.09190368652344 C 107.9891510009766 55.09371566772461 107.989128112793 55.09484481811523 107.9890899658203 55.09665298461914 C 107.9889373779297 55.10422897338867 107.9887771606445 55.11210250854492 107.9886245727539 55.11967468261719 C 107.9885864257812 55.12148666381836 107.9885177612305 55.12478637695312 107.9884872436523 55.1265983581543 C 107.9883193969727 55.13479995727539 107.9881439208984 55.14301300048828 107.9879760742188 55.15121459960938 C 107.9879379272461 55.15302276611328 107.9879455566406 55.15246200561523 107.9879150390625 55.15427398681641 C 107.9877243041992 55.16310882568359 107.9875335693359 55.17216491699219 107.9873428344727 55.18099594116211 C 107.9873046875 55.18280792236328 107.9872207641602 55.18681716918945 107.9871826171875 55.18862915039062 C 107.9870300292969 55.19556427001953 107.9868698120117 55.20298385620117 107.9867172241211 55.20992279052734 C 107.9866790771484 55.21173477172852 107.9866180419922 55.21450805664062 107.986572265625 55.2163200378418 C 107.9863739013672 55.2254638671875 107.9861755371094 55.23432540893555 107.985969543457 55.24346923828125 C 107.9859237670898 55.24527740478516 107.9859085083008 55.24605178833008 107.9858703613281 55.24785995483398 C 107.9856948852539 55.25542831420898 107.9855041503906 55.2638053894043 107.9853286743164 55.2713737487793 C 107.9852447509766 55.27499389648438 107.9852600097656 55.27425384521484 107.9851760864258 55.27787399291992 C 107.984748840332 55.29647445678711 107.9843139648438 55.31461334228516 107.9838638305664 55.33320999145508 C 107.9838256835938 55.33502197265625 107.983772277832 55.33723068237305 107.9837265014648 55.33904266357422 C 107.9835433959961 55.34660720825195 107.9833450317383 55.35451507568359 107.9831619262695 55.36207962036133 C 107.9831161499023 55.36388778686523 107.9830703735352 55.36567306518555 107.983024597168 55.36748123168945 C 107.9827880859375 55.37693405151367 107.9825592041016 55.38631820678711 107.9823150634766 55.39577102661133 C 107.9823150634766 55.39577102661133 107.982307434082 55.39606475830078 107.982307434082 55.39606475830078 C 107.9820785522461 55.40520095825195 107.9818496704102 55.4140625 107.9816131591797 55.42319869995117 C 107.9815216064453 55.42681503295898 107.9815521240234 55.4254264831543 107.9814605712891 55.42904663085938 C 107.9812469482422 55.43723678588867 107.9810333251953 55.4454345703125 107.9808197021484 55.45362854003906 C 107.9807662963867 55.45543670654297 107.9807739257812 55.45534896850586 107.9807205200195 55.45715713500977 C 107.9804840087891 55.46629333496094 107.9802322387695 55.47571182250977 107.97998046875 55.48484420776367 C 107.9799346923828 55.48665237426758 107.9798889160156 55.48826599121094 107.9798431396484 55.49007415771484 C 107.9796371459961 55.49763488769531 107.9794311523438 55.50514221191406 107.9792251586914 55.51270294189453 C 107.9791717529297 55.51451110839844 107.9790878295898 55.51750946044922 107.9790420532227 55.51931762695312 C 107.9787902832031 55.5284538269043 107.9785308837891 55.537841796875 107.978271484375 55.54697418212891 C 107.978271484375 55.54697418212891 107.9782638549805 55.54727935791016 107.9782638549805 55.54727935791016 C 107.9780044555664 55.55641174316406 107.9777526855469 55.56531143188477 107.9774932861328 55.57444000244141 C 107.9774398803711 55.57624816894531 107.9773712158203 55.57869720458984 107.9773178100586 55.58050537109375 C 107.9770736694336 55.58900451660156 107.9768524169922 55.59663391113281 107.9766006469727 55.60513305664062 C 107.9765472412109 55.60694122314453 107.9765625 55.60646057128906 107.9765090942383 55.6082649230957 C 107.9762420654297 55.61739730834961 107.975959777832 55.62709045410156 107.9756851196289 55.6362190246582 C 107.9756317138672 55.63802337646484 107.9756011962891 55.63908386230469 107.9755477905273 55.64088821411133 C 107.9753112792969 55.64875793457031 107.9750823974609 55.65644454956055 107.9748458862305 55.66431427001953 C 107.9747924804688 55.66612243652344 107.9747161865234 55.66863632202148 107.9746551513672 55.67044067382812 C 107.9741058349609 55.68869781494141 107.9735260009766 55.70746231079102 107.9729537963867 55.72571182250977 C 107.9728927612305 55.72751998901367 107.9728240966797 55.72964477539062 107.972770690918 55.73144912719727 C 107.9725036621094 55.73994445800781 107.9722518920898 55.74783325195312 107.9719772338867 55.75632476806641 C 107.9719772338867 55.75632476806641 107.9718856811523 55.75940322875977 107.9718856811523 55.75940322875977 C 107.9715805053711 55.76884078979492 107.9712829589844 55.77809906005859 107.9709777832031 55.78753662109375 C 107.9709777832031 55.78753662109375 107.970832824707 55.79179763793945 107.970832824707 55.79179763793945 C 107.9705810546875 55.79965972900391 107.970329284668 55.80725479125977 107.9700698852539 55.81511688232422 C 107.9700088500977 55.81692123413086 107.9699096679688 55.81996154785156 107.9698486328125 55.8217658996582 C 107.9692459106445 55.84000778198242 107.968635559082 55.85810089111328 107.968017578125 55.87633895874023 C 107.9679565429688 55.87814331054688 107.9678344726562 55.88153076171875 107.9677734375 55.88333511352539 C 107.9675140380859 55.8908805847168 107.9672622680664 55.89835357666016 107.9669952392578 55.90589904785156 C 107.9669342041016 55.9077033996582 107.9668807983398 55.9091911315918 107.9668197631836 55.91099548339844 C 107.9665145874023 55.9197998046875 107.966178894043 55.92932891845703 107.9658737182617 55.93812942504883 C 107.9658050537109 55.93993377685547 107.9657363891602 55.94197463989258 107.9656677246094 55.94377899169922 C 107.9654006958008 55.95132064819336 107.9651412963867 55.95858764648438 107.9648742675781 55.96612930297852 C 107.9648132324219 55.96793365478516 107.9646987915039 55.97105026245117 107.9646301269531 55.97285461425781 C 107.9639663696289 55.99139785766602 107.9633026123047 56.00968933105469 107.9626159667969 56.02822875976562 C 107.9625473022461 56.03003311157227 107.9625015258789 56.03140640258789 107.9624328613281 56.03321075439453 C 107.9621276855469 56.04137802124023 107.9618453979492 56.04904556274414 107.961540222168 56.05721282958984 C 107.9614715576172 56.05901718139648 107.9614334106445 56.06001281738281 107.9613647460938 56.06181716918945 C 107.9606704711914 56.08035278320312 107.9599304199219 56.09968948364258 107.9592208862305 56.11822128295898 C 107.9591522216797 56.12002563476562 107.959114074707 56.12104415893555 107.9590377807617 56.12284851074219 C 107.9583129882812 56.14169311523438 107.9575729370117 56.16054153442383 107.9568252563477 56.17938232421875 C 107.9567565917969 56.18118286132812 107.9567337036133 56.18177795410156 107.956657409668 56.18357849121094 C 107.9563217163086 56.19205856323242 107.9559860229492 56.20037841796875 107.9556503295898 56.20885467529297 C 107.9555740356445 56.21065521240234 107.9555816650391 56.21042633056641 107.9555130004883 56.21223068237305 C 107.9547424316406 56.23138046264648 107.9539566040039 56.25057220458984 107.9531631469727 56.26971817016602 C 107.9531631469727 56.26971817016602 107.9530334472656 56.27300262451172 107.9530334472656 56.27300262451172 C 107.9522399902344 56.29214477539062 107.951416015625 56.31168365478516 107.9506072998047 56.3308219909668 C 107.9506072998047 56.3308219909668 107.9505081176758 56.33305740356445 107.9505081176758 56.33305740356445 C 107.9501342773438 56.34184265136719 107.9497528076172 56.35076141357422 107.9493789672852 56.35954666137695 C 107.9493026733398 56.36134719848633 107.9493026733398 56.36123657226562 107.9492263793945 56.363037109375 C 107.9484024047852 56.38217163085938 107.9475784301758 56.40102767944336 107.9467391967773 56.42015838623047 C 107.9467391967773 56.42015838623047 107.9465789794922 56.42377471923828 107.9465789794922 56.42377471923828 C 107.9457321166992 56.44290542602539 107.9448547363281 56.46251678466797 107.9439926147461 56.48164367675781 C 107.9439926147461 56.48164367675781 107.9439239501953 56.48321914672852 107.9439239501953 56.48321914672852 C 107.9434967041016 56.49262619018555 107.9430847167969 56.50160980224609 107.9426574707031 56.51101684570312 C 107.9425735473633 56.5128173828125 107.9426498413086 56.51121520996094 107.9425659179688 56.51301574707031 C 107.9416732788086 56.53245162963867 107.9407577514648 56.55228042602539 107.9398422241211 56.57171249389648 C 107.9398422241211 56.57171249389648 107.9397735595703 56.57326889038086 107.9397735595703 56.57326889038086 C 107.9383850097656 56.60272979736328 107.9369888305664 56.632080078125 107.9355545043945 56.66152954101562 C 107.9354705810547 56.66332626342773 107.935546875 56.66170120239258 107.9354629516602 56.66349792480469 C 107.9345016479492 56.68323516845703 107.9335479736328 56.70273590087891 107.9325637817383 56.72246551513672 C 107.9325637817383 56.72246551513672 107.9325256347656 56.72325134277344 107.9325256347656 56.72325134277344 C 107.9300384521484 56.77336120605469 107.9275131225586 56.82276916503906 107.9248886108398 56.87284088134766 C 107.9247970581055 56.87463760375977 107.9249496459961 56.87166976928711 107.9248580932617 56.87346649169922 C 107.9243316650391 56.88348007202148 107.9238357543945 56.89299011230469 107.9233016967773 56.90299987792969 C 107.9233016967773 56.90299987792969 107.9232940673828 56.90317916870117 107.9232940673828 56.90317916870117 C 107.922248840332 56.92289352416992 107.9211730957031 56.94294357299805 107.9201126098633 56.96265029907227 C 107.9201126098633 56.96265029907227 107.920051574707 56.96367263793945 107.920051574707 56.96367263793945 C 107.9189910888672 56.98337936401367 107.9179077148438 57.00313186645508 107.9168243408203 57.02283096313477 C 107.9168243408203 57.02283096313477 107.9167633056641 57.02387237548828 107.9167633056641 57.02387237548828 C 107.9123611450195 57.10361480712891 107.9077835083008 57.1834716796875 107.9030303955078 57.26312255859375 C 107.9030303955078 57.26312255859375 107.9030151367188 57.26345062255859 107.9030151367188 57.26345062255859 C 107.6623077392578 61.30167770385742 106.9778289794922 65.22023010253906 105.8976593017578 68.97134399414062 L 94.36624145507812 65.65077209472656 C 95.4503173828125 61.88602828979492 96 57.96615982055664 96 54.00000381469727 C 96 30.84113311767578 77.15887451171875 12.00000762939453 54.00000381469727 12.00000762939453 L 54.00000381469727 7.62939453125e-06 C 54.00000381469727 7.62939453125e-06 54.00000381469727 7.62939453125e-06 54.00000381469727 7.62939453125e-06 Z" stroke="none" fill="#ffb600"/>
    </g>
  </g>
</svg>
