<svg xmlns="http://www.w3.org/2000/svg" width="19.074" height="27.828" viewBox="0 0 19.074 27.828">
  <g id="report" transform="translate(-7.6)">
    <g id="Group_13323" data-name="Group 13323" transform="translate(7.6)">
      <path id="Path_44641" data-name="Path 44641" d="M26.036,4.406H22.848V3.363a.548.548,0,0,0-.58-.58H19.833a.44.44,0,0,1-.232-.116.213.213,0,0,1-.058-.174,4.475,4.475,0,0,0-.116-.87A2.512,2.512,0,0,0,17.572,0h-.464a2.462,2.462,0,0,0-2.435,2.493.3.3,0,0,1-.116.232.213.213,0,0,1-.174.058H11.948a.548.548,0,0,0-.58.58V4.406H8.18a.548.548,0,0,0-.58.58V27.249a.548.548,0,0,0,.58.58H26.094a.548.548,0,0,0,.58-.58V4.986A.632.632,0,0,0,26.036,4.406ZM12.528,3.942h1.855a1.513,1.513,0,0,0,.986-.406,1.53,1.53,0,0,0,.406-1.1A1.3,1.3,0,0,1,17.34,1.16a1.253,1.253,0,0,1,.986.87,1.277,1.277,0,0,1,.058.464,1.358,1.358,0,0,0,.406.986,1.452,1.452,0,0,0,1.044.464h1.855V4.986h0V7.131h-9.16Zm-1.16,3.884s.058.348.58.464h10.32a.567.567,0,0,0,.522-.406V7.827h.348V24.408H10.963V7.827ZM25.456,26.669H8.76V5.566h2.609v1.1h-.928a.548.548,0,0,0-.58.58V24.987a.548.548,0,0,0,.58.58H23.775a.548.548,0,0,0,.58-.58V7.247a.548.548,0,0,0-.58-.58h-.928v-1.1h2.609Z" transform="translate(-7.6)" fill="#434242"/>
      <path id="Path_44642" data-name="Path 44642" d="M16.38,25.46H24.67a.58.58,0,1,0,0-1.16H16.38a.548.548,0,0,0-.58.58A.581.581,0,0,0,16.38,25.46Z" transform="translate(-11.046 -10.212)" fill="#434242"/>
      <path id="Path_44643" data-name="Path 44643" d="M16.38,19.56h4.232a.58.58,0,0,0,0-1.16H16.38a.548.548,0,0,0-.58.58A.623.623,0,0,0,16.38,19.56Z" transform="translate(-11.046 -7.733)" fill="#434242"/>
      <path id="Path_44644" data-name="Path 44644" d="M16.38,31.46H24.67a.58.58,0,0,0,0-1.16H16.38a.548.548,0,0,0-.58.58A.581.581,0,0,0,16.38,31.46Z" transform="translate(-11.046 -12.733)" fill="#434242"/>
      <path id="Path_44645" data-name="Path 44645" d="M16.38,37.46H24.67a.58.58,0,1,0,0-1.16H16.38a.548.548,0,0,0-.58.58A.623.623,0,0,0,16.38,37.46Z" transform="translate(-11.046 -15.255)" fill="#434242"/>
    </g>
  </g>
</svg>
