<svg xmlns="http://www.w3.org/2000/svg" width="58.073" height="72.77" viewBox="0 0 58.073 72.77">
  <g id="simihome" transform="translate(2163.036 -7070.231)">
    <ellipse id="Ellipse_47" data-name="Ellipse 47" cx="27.385" cy="27.385" rx="27.385" ry="27.385" transform="translate(-2159.733 7070.231)" fill="#f7dfa1"/>
    <g id="Group_13382" data-name="Group 13382" transform="translate(3305.964 2094.498)">
      <g id="sale_2_" data-name="sale (2)" transform="translate(-5469 4980.5)">
        <g id="Group_13187" data-name="Group 13187" transform="translate(0)">
          <g id="Group_13186" data-name="Group 13186">
            <path id="Path_44582" data-name="Path 44582" d="M64.672,6.676V1.047A.978.978,0,0,0,63.749,0H7.524A.978.978,0,0,0,6.6,1.047V66.955A.978.978,0,0,0,7.524,68h5.369a.978.978,0,0,0,.924-1.047V7.723H25.765v6.021H23.341c-2.6,0-4.734,2.422-4.734,5.367v18.13c0,2.945,2.136,5.367,4.734,5.367h36.6c2.6,0,4.734-2.422,4.734-5.367v-18.2c0-2.945-2.136-5.367-4.734-5.367H57.514V7.658h6.234v.065A.978.978,0,0,0,64.672,6.676Zm-4.734,9.1a3.108,3.108,0,0,1,2.886,3.272v18.2a3.105,3.105,0,0,1-2.886,3.272H23.283A3.108,3.108,0,0,1,20.4,37.241v-18.2a3.105,3.105,0,0,1,2.886-3.272ZM27.5,13.744V7.723h28.17v6.021ZM62.825,5.629H57.514a.866.866,0,0,0-1.732,0H27.5a.866.866,0,0,0-1.732,0H12.892a.978.978,0,0,0-.924,1.047V65.908H8.447V2.029H62.825Z" transform="translate(-6.6)"/>
          </g>
        </g>
      </g>
      <path id="home" d="M19.133,8.328h0L11.32.516a1.763,1.763,0,0,0-2.493,0L1.02,8.323l-.008.008a1.762,1.762,0,0,0,1.173,3l.054,0H2.55v5.748a2.066,2.066,0,0,0,2.063,2.063H7.67a.561.561,0,0,0,.561-.561V14.081a.942.942,0,0,1,.941-.941h1.8a.942.942,0,0,1,.941.941v4.507a.561.561,0,0,0,.561.561h3.056A2.066,2.066,0,0,0,17.6,17.085V11.337h.289a1.763,1.763,0,0,0,1.248-3.009Zm-.794,1.7a.637.637,0,0,1-.453.188h-.85a.561.561,0,0,0-.561.561v6.309a.942.942,0,0,1-.941.941h-2.5V14.081a2.066,2.066,0,0,0-2.063-2.063h-1.8a2.066,2.066,0,0,0-2.063,2.063v3.946h-2.5a.942.942,0,0,1-.941-.941V10.776a.561.561,0,0,0-.561-.561H2.25a.64.64,0,0,1-.441-1.093h0L9.62,1.309a.641.641,0,0,1,.906,0l7.809,7.809,0,0a.642.642,0,0,1,0,.905Zm0,0" transform="translate(-5444.314 4998.796)"/>
    </g>
  </g>
</svg>
