<svg xmlns="http://www.w3.org/2000/svg" width="20" height="20" viewBox="0 0 20 20">
  <path id="starsvg" d="M10.966,1.675l2.256,4.779a1.081,1.081,0,0,0,.811.616l5.044.766a1.14,1.14,0,0,1,.6,1.921l-3.65,3.72a1.159,1.159,0,0,0-.31,1l.861,5.253a1.088,1.088,0,0,1-1.563,1.187L10.5,18.435a1.037,1.037,0,0,0-1,0l-4.511,2.48a1.088,1.088,0,0,1-1.563-1.187l.861-5.253a1.159,1.159,0,0,0-.31-1L.327,9.757a1.14,1.14,0,0,1,.6-1.921L5.968,7.07a1.081,1.081,0,0,0,.811-.616L9.035,1.675A1.056,1.056,0,0,1,10.966,1.675Z" transform="translate(0 -1.047)" fill="#ffc107"/>
</svg>
