<svg id="warningcolor" xmlns="http://www.w3.org/2000/svg" width="16.392" height="16.392" viewBox="0 0 16.392 16.392">
  <path id="Path_44680" data-name="Path 44680" d="M13.2,957.362a8.2,8.2,0,1,0,8.2,8.2A8.2,8.2,0,0,0,13.2,957.362Zm0,1.093a7.1,7.1,0,1,1-7.1,7.1A7.095,7.095,0,0,1,13.2,958.455Zm0,1.093A1.093,1.093,0,0,0,12.1,960.64l.182,7.1a.911.911,0,0,0,1.821,0l.182-7.1A1.093,1.093,0,0,0,13.2,959.548Zm0,9.835a1.093,1.093,0,1,0,1.093,1.093,1.093,1.093,0,0,0-1.093-1.093Z" transform="translate(-5 -957.362)" fill="#ffb600"/>
</svg>
