<svg id="warning" xmlns="http://www.w3.org/2000/svg" width="20.483" height="20.483" viewBox="0 0 20.483 20.483">
  <path id="Path_44667" data-name="Path 44667" d="M15.241,957.362A10.241,10.241,0,1,0,25.483,967.6a10.252,10.252,0,0,0-10.241-10.241Zm0,1.366A8.876,8.876,0,1,1,6.366,967.6,8.865,8.865,0,0,1,15.241,958.728Zm0,1.365a1.365,1.365,0,0,0-1.366,1.365l.228,8.876a1.138,1.138,0,1,0,2.276,0l.228-8.876A1.365,1.365,0,0,0,15.241,960.093Zm0,12.29a1.365,1.365,0,1,0,1.366,1.365A1.365,1.365,0,0,0,15.241,972.383Z" transform="translate(-5 -957.362)" fill="#fff"/>
</svg>
