<svg id="google_icon-icons.com_62736" xmlns="http://www.w3.org/2000/svg" width="42.322" height="42.241" viewBox="0 0 42.322 42.241">
  <path id="Path_44737" data-name="Path 44737" d="M42.4,18.551a20.809,20.809,0,0,1,5.63-7.128A21.66,21.66,0,0,1,72.9,9.534a24.271,24.271,0,0,1,2.988,2.131c.234.191.208.3.009.494q-2.9,2.884-5.777,5.786c-.225.225-.346.208-.589.026A12.764,12.764,0,0,0,49.8,23.8a2.517,2.517,0,0,1-.156.3c-1.117-.849-2.243-1.7-3.352-2.555Q44.34,20.053,42.4,18.551Z" transform="translate(-40.155 -6.474)" fill="#e94335"/>
  <path id="Path_44738" data-name="Path 44738" d="M49.55,303.8a22.591,22.591,0,0,0,1.152,2.451,12.461,12.461,0,0,0,8.471,6.028,13.54,13.54,0,0,0,9.528-1.455c.1-.052.208-.1.3-.156.052.052.1.113.147.156q3.352,2.6,6.713,5.2a17.131,17.131,0,0,1-3.594,2.668,20.83,20.83,0,0,1-12.143,2.685,21.268,21.268,0,0,1-13.78-6.34,19.811,19.811,0,0,1-4.045-5.716c.927-.71,1.854-1.412,2.78-2.122C46.57,306.061,48.06,304.935,49.55,303.8Z" transform="translate(-40.063 -279.2)" fill="#34a853"/>
  <path id="Path_44739" data-name="Path 44739" d="M281.012,231.259q-3.352-2.6-6.713-5.2a1.257,1.257,0,0,1-.147-.156,13.318,13.318,0,0,0,2.191-1.94,10.073,10.073,0,0,0,2.122-4.3c.043-.2.009-.268-.191-.26-.1.009-.2,0-.3,0-3.534,0-7.076-.009-10.61.009-.39,0-.476-.1-.468-.476q.026-3.768,0-7.535c0-.32.087-.407.407-.407q9.718.013,19.445,0c.277,0,.39.069.459.364a20.409,20.409,0,0,1,.173,7.18,23.467,23.467,0,0,1-1.447,5.587,19.87,19.87,0,0,1-4.694,6.972C281.159,231.164,281.081,231.207,281.012,231.259Z" transform="translate(-245.29 -194.438)" fill="#4285f3"/>
  <path id="Path_44740" data-name="Path 44740" d="M25.964,159.668c-1.49,1.135-2.98,2.261-4.469,3.4-.927.7-1.854,1.412-2.78,2.122a18.742,18.742,0,0,1-1.568-4.2,21.838,21.838,0,0,1-.442-8.54A19.872,19.872,0,0,1,18.714,146c1.3,1,2.59,2,3.889,3q1.676,1.286,3.352,2.555a25.181,25.181,0,0,0-.546,2.789,13.441,13.441,0,0,0,.5,5.084A.711.711,0,0,1,25.964,159.668Z" transform="translate(-16.477 -134.491)" fill="#fabb06"/>
</svg>
