<svg xmlns="http://www.w3.org/2000/svg" width="129.343" height="42.409" viewBox="0 0 129.343 42.409">
  <g id="Layer_x0020_1" transform="translate(0 0)">
    <path id="Path_44741" data-name="Path 44741" d="M287.8,787.165H272.707v4.479h10.7c-.529,6.28-5.754,8.959-10.686,8.959a11.962,11.962,0,0,1,.014-23.923,11.617,11.617,0,0,1,8.069,3.237l3.136-3.247a15.942,15.942,0,0,0-11.366-4.481,16.454,16.454,0,1,0,.238,32.9c8.808,0,15.256-6.034,15.256-14.957a13.428,13.428,0,0,0-.273-2.97h0Z" transform="translate(-255.999 -772.188)" fill="#176bef" fill-rule="evenodd"/>
    <path id="Path_44742" data-name="Path 44742" d="M664.9,915.683a6.435,6.435,0,1,1-6.052,6.4,6.08,6.08,0,0,1,6.052-6.4Zm-.062-4.154a10.575,10.575,0,1,0,10.611,10.611A10.449,10.449,0,0,0,664.837,911.529Z" transform="translate(-620.674 -899.796)" fill="#ff3e30" fill-rule="evenodd"/>
    <path id="Path_44743" data-name="Path 44743" d="M939.473,915.683a6.435,6.435,0,1,1-6.051,6.4,6.08,6.08,0,0,1,6.051-6.4Zm-.062-4.154a10.575,10.575,0,1,0,10.611,10.611A10.449,10.449,0,0,0,939.411,911.529Z" transform="translate(-872.127 -899.796)" fill="#f7b529" fill-rule="evenodd"/>
    <path id="Path_44744" data-name="Path 44744" d="M1214.34,915.806c2.787,0,5.648,2.38,5.648,6.443,0,4.13-2.856,6.407-5.71,6.407a6.009,6.009,0,0,1-5.85-6.368c0-4.06,2.928-6.483,5.912-6.483Zm-.412-4.146c-5.684,0-10.153,4.979-10.153,10.567a10.432,10.432,0,0,0,10.055,10.586,6.988,6.988,0,0,0,5.8-2.57v2.085c0,3.648-2.216,5.833-5.56,5.833a5.863,5.863,0,0,1-5.413-3.765l-4.064,1.7a10.173,10.173,0,0,0,9.511,6.228c5.652,0,9.96-3.56,9.96-11.026v-19h-4.434v1.791a7.48,7.48,0,0,0-5.7-2.427Z" transform="translate(-1123.965 -899.916)" fill="#176bef" fill-rule="evenodd"/>
    <path id="Path_44745" data-name="Path 44745" d="M1571.727,915.427a4.216,4.216,0,0,1,3.913,2.259l-9.47,3.958A5.874,5.874,0,0,1,1571.727,915.427Zm-.185-4.067c-5.362,0-9.864,4.266-9.864,10.561a10.227,10.227,0,0,0,10.379,10.612,10.73,10.73,0,0,0,8.86-4.641l-3.656-2.433a5.918,5.918,0,0,1-5.181,2.911,5.44,5.44,0,0,1-5.187-3.205l14.18-5.884-.736-1.724a9.575,9.575,0,0,0-8.794-6.2Z" transform="translate(-1451.73 -899.641)" fill="#ff3e30" fill-rule="evenodd"/>
    <path id="Path_44746" data-name="Path 44746" d="M1481.4,816.345h4.657V785.174H1481.4Z" transform="translate(-1378.212 -784.081)" fill="#179c52" fill-rule="evenodd"/>
  </g>
</svg>
