<svg xmlns="http://www.w3.org/2000/svg" width="301.011" height="300.012" viewBox="0 0 301.011 300.012">
  <g id="Pie_chart" data-name="Pie chart" transform="translate(-2568.994 -15676.356)">
    <g id="Path_44691" data-name="Path 44691" transform="translate(2570.005 15676.356)" fill="none" stroke="rgba(0,0,0,0)" stroke-width="1">
      <rect width="238.178" height="300" stroke="none"/>
      <rect x="0.5" y="0.5" width="237.178" height="299" fill="none"/>
    </g>
    <path id="Text_94_-_25.8_" data-name="Text (94 - 25.8%)" d="M2869.837,15833.455a150,150,0,0,0-149.832-157.1v150Z" transform="translate(0 2)" fill="#d0191d"/>
    <path id="Text_80_-_21.9_" data-name="Text (80 - 21.9%)" d="M2742.685,15976.368c73.573-10.569,129.181-70.423,132.7-142.835l-155.38-7.176Z" transform="translate(-5.548)" fill="#d0191d"/>
    <path id="Text_79_-_21.6_" data-name="Text (79 - 21.6%)" d="M2579.473,15878.8a150,150,0,0,0,162.4,95.951l-21.87-148.4Z" fill="#d0191d"/>
    <path id="Text_75_-_20.5_" data-name="Text (75 - 20.5%)" d="M2630.8,15705.768c-53.777,39.116-74.712,108.517-51.323,170.137L2720,15824.335Z" transform="translate(-1 2.9)" fill="#94ca60"/>
    <path id="Text_37_-_10.1_" data-name="Text (37 - 10.1%)" d="M2720.005,15676.356a150.007,150.007,0,0,0-89.209,29.412l89.209,120.588Z" transform="translate(-1 2.002)" fill="#bbe50b"/>
    <path id="Path_44697" data-name="Path 44697" d="M2720,15828.359l33.026-146.465a132.007,132.007,0,0,0-16.143-3.01,143.908,143.908,0,0,0-16.948-.51Z" fill="#e89e0c"/>
  </g>
</svg>
