<svg xmlns="http://www.w3.org/2000/svg" width="15.525" height="15.525" viewBox="0 0 15.525 15.525">
  <g id="noun_linkedin_2049762" transform="translate(-7 -7)">
    <g id="Group_13539" data-name="Group 13539" transform="translate(7 7)">
      <path id="Path_44734" data-name="Path 44734" d="M9.166,7a2.166,2.166,0,1,0,2.166,2.166A2.172,2.172,0,0,0,9.166,7Zm0,.722A1.444,1.444,0,1,1,7.722,9.166,1.439,1.439,0,0,1,9.166,7.722Zm9.387,3.972a3.5,3.5,0,0,0-2.527,1.055v-.333a.375.375,0,0,0-.361-.361H12.777a.375.375,0,0,0-.361.361v9.749a.375.375,0,0,0,.361.361h3.069a.375.375,0,0,0,.361-.361V16.749a2.088,2.088,0,0,1,.355-1.185.913.913,0,0,1,.728-.44h.361a.913.913,0,0,1,.728.44,2.088,2.088,0,0,1,.355,1.185v5.416a.375.375,0,0,0,.361.361h3.069a.375.375,0,0,0,.361-.361V20.179a.361.361,0,1,0-.722,0V21.8H19.456V16.749a2.761,2.761,0,0,0-.491-1.6,1.646,1.646,0,0,0-1.314-.745H17.29a1.646,1.646,0,0,0-1.314.745,2.761,2.761,0,0,0-.491,1.6v2.166H15.27a.361.361,0,1,0,.034.722h.181v.722H15.27a.361.361,0,1,0,.034.722h.181V21.8H13.138V12.777H15.3v.9a.361.361,0,0,0,.643.226,3.1,3.1,0,0,1,2.606-1.489,3.116,3.116,0,0,1,2.55.9,3.841,3.841,0,0,1,.7,2.533v2.888a.361.361,0,1,0,.722,0V15.846a4.5,4.5,0,0,0-.869-3A3.878,3.878,0,0,0,18.554,11.694Zm-10.866.361a.374.374,0,0,0-.327.361v9.749a.375.375,0,0,0,.361.361h3.069a.375.375,0,0,0,.361-.361V12.416a.375.375,0,0,0-.361-.361Zm.395.722H10.43v6.138h-.214a.361.361,0,1,0,.034.722h.181v.722h-.214a.361.361,0,1,0,.034.722h.181V21.8H8.083Z" transform="translate(-7 -7)" fill="#ffb600"/>
    </g>
  </g>
</svg>
