<svg xmlns="http://www.w3.org/2000/svg" width="16.1" height="12.222" viewBox="0 0 16.1 12.222">
  <g id="noun_youtube_3612072" transform="translate(-36.9 -54.05)">
    <path id="Path_44735" data-name="Path 44735" d="M50.971,54.05H38.929A2.031,2.031,0,0,0,36.9,56.082v8.152a2.031,2.031,0,0,0,2.029,2.038H50.971A2.031,2.031,0,0,0,53,64.234V56.082A2.031,2.031,0,0,0,50.971,54.05Zm1.35,10.19a1.352,1.352,0,0,1-1.35,1.353H38.929a1.352,1.352,0,0,1-1.35-1.359V56.082a1.352,1.352,0,0,1,1.35-1.353H50.971a1.352,1.352,0,0,1,1.35,1.353Z" fill="#ffb600"/>
    <path id="Path_44736" data-name="Path 44736" d="M97.061,90.107l-3.642-1.939a.34.34,0,0,0-.5.3v3.878a.34.34,0,0,0,.164.3.346.346,0,0,0,.175.048.34.34,0,0,0,.16-.04l3.642-1.938a.34.34,0,0,0,0-.6ZM93.6,91.781V89.034l2.58,1.373Z" transform="translate(-49.677 -30.22)" fill="#ffb600"/>
  </g>
</svg>
